<svg width="660" height="490" fill="none" xmlns="http://www.w3.org/2000/svg"><path d="M659.31 104.61H21.47v268.12h637.84V104.61z" fill="#0075E7"/><path d="M264.91 104.61c.767 4.38 1.55 8.763 2.35 13.15l2 10.74c-.44 3.13 1.84 5.55 4.7 6.48 1.5.42 3.044.662 4.6.72 2.113.16 4.227.253 6.34.28 7.747.044 15.487-.504 23.15-1.64 7.73-1.07 15.41-2.49 23.06-4 7-1.38 14.05-2.9 21-4.79a156.424 156.424 0 0020.45-7c6.08-2.6 12.5-5.55 17.63-9.79a17.914 17.914 0 003.73-4.14l-129.01-.01z" fill="#16205B"/><path d="M398.53 85.41a4101.07 4101.07 0 00-4.47-23.14C391 46.7 387.75 31.16 384 15.74c-.85-3.45-1.46-7.14-2.85-10.42-1-2.31-2.74-4.52-5.47-4.53a10.18 10.18 0 00-4.43 1.39 48.607 48.607 0 00-5.12 3c-3 2-5.92 4.09-9 6-23.88 15.38-51.7 23.86-79.76 27.26a94.723 94.723 0 00-9.8 1.21c-2.65.61-5.19 2-6.36 4.52-1.3 2.83-.7 6.06-.26 9 .58 3.907 1.173 7.817 1.78 11.73a1717.607 1717.607 0 008 47.27l2 10.74c-.43 3.13 1.85 5.54 4.7 6.48a19.41 19.41 0 004.6.71c2.11.17 4.23.26 6.34.29 7.747.044 15.487-.504 23.15-1.64 7.73-1.07 15.41-2.5 23.07-4 7-1.38 14-2.9 21-4.79A157.234 157.234 0 00376 113c6.07-2.61 12.5-5.56 17.62-9.8a15.319 15.319 0 005.19-7.29c1.04-3.43.37-7.06-.28-10.5z" fill="#FFBF1B"/><path d="M353.25 61.6l-1 2.14-55 20.68-.68 1.84a3.258 3.258 0 002 4.19l46.18 16a3.452 3.452 0 002.71-.19l32.64-16.6a2.24 2.24 0 00.56-3.57l-25-24.91a1.501 1.501 0 00-2.41.42zm2.65 4l21.71 22-24 11.68 2.29-33.68z" fill="#0075E7"/><path d="M355.69 61.15a1.503 1.503 0 00-1.998-.122 1.503 1.503 0 00-.442.572l-1 2.14-2.76 1-4.81 38.27-.62 3.13.7.24a3.45 3.45 0 002.71-.19l32.64-16.6a2.238 2.238 0 00.56-3.57l-24.98-24.87zm-2.06 38.14l2.27-33.67 21.71 22-23.98 11.67z" fill="#005FAD"/><path d="M260.46 48.89c0 .34 0 .67.07 1 8.55-.18 17.08-.899 25.54-2.15A207.067 207.067 0 00312.6 42a209.248 209.248 0 0025.49-9 208.828 208.828 0 0024.1-12.23 206.082 206.082 0 0019.7-13.32c-.1-.32-.21-.65-.33-1a206.075 206.075 0 01-17.2 11.81 207.754 207.754 0 01-23.71 12.51 209.626 209.626 0 01-25.21 9.39 208.649 208.649 0 01-26.23 6.09 203.371 203.371 0 01-26.76 2.6l-1.99.04z" fill="#fff"/><path opacity=".26" d="M375.65.79a10.18 10.18 0 00-4.43 1.39 48.607 48.607 0 00-5.12 3c-3 2-5.92 4.09-9 6-23.88 15.38-51.7 23.86-79.76 27.26a94.723 94.723 0 00-9.8 1.21c-2.65.61-5.19 2-6.36 4.52-1.3 2.83-.7 6.06-.26 9 .58 3.907 1.173 7.817 1.78 11.73a1717.607 1717.607 0 008 47.27l2 10.74a5.633 5.633 0 002.67 5.49L376.19.85a4.698 4.698 0 00-.54-.06z" fill="#fff"/><path d="M302 7l-6.53 75.52a5.767 5.767 0 003.89 6l44.39 15a5.115 5.115 0 004.453-.579 5.105 5.105 0 002.277-3.87l6.21-82.3a6.2 6.2 0 00-5-6.57l-43-8.22A5.622 5.622 0 00302 7z" fill="#E6F0FF"/><path d="M351.71 10.18l-43-8.22a5.62 5.62 0 00-2.62.13l42.33 8.09a6.2 6.2 0 015 6.57l-6.21 82.3a5.077 5.077 0 01-3.45 4.44 5.115 5.115 0 004.454-.579 5.112 5.112 0 002.276-3.87l6.21-82.3a6.197 6.197 0 00-4.99-6.56z" fill="#CAD2E0"/><path d="M307.5 8.08l40.12 8.16-5.01 81.03-41.92-14.18 6.81-75.01z" fill="#A8CCE2"/><path d="M309.23 15.12a2.746 2.746 0 012.128-2.427 2.74 2.74 0 011.142-.013l34.9 7.11.22-3.55-40.11-8.16-6.82 75 2.29.78 6.25-68.74z" fill="#83B4CC"/><path opacity=".22" d="M351.71 10.18l-43-8.22a5.6 5.6 0 00-4.58 1.15L345 103.75a5.112 5.112 0 005.53-4.7l6.21-82.3a6.2 6.2 0 00-5.03-6.57z" fill="#fff"/><path opacity=".59" d="M328.21 92.4l8.36 2.82-30.13-75.4-1.14 12.51 22.91 60.07zm-16.77-5.67l6.69 2.26-14.15-42.06-1.04 11.36 8.5 28.44z" fill="#fff"/><path d="M65.64 135.9c-.52 7.333-.963 14.643-1.33 21.93-.09 1.81-.17 3.63-.25 5.45a37.792 37.792 0 00-.14 5.21 4.723 4.723 0 001.79 3.41 11.192 11.192 0 003.53 1.61 315.667 315.667 0 0039.09 10.17 186.639 186.639 0 0040.23 3.5c3.24-.1 6.474-.313 9.7-.64a.528.528 0 00.28-.93c7.85-7.53 15.46-15.69 20.33-25.52a51.679 51.679 0 004.89-15.47c.39-2.67.52-5.35.67-8 .15-2.65.3-5.54.43-8.31.28-6.09.52-12.18.59-18.28 0-1.79.06-3.59.05-5.39H68.39a994.23 994.23 0 00-2.75 31.26z" fill="#16205B"/><path d="M190.43 96.45a3.919 3.919 0 00-1.83-3.31 11.448 11.448 0 00-4.32-.64c-6.72-.4-13.46 0-20.19-.09s-13.64-.82-20.42-1.56a344.213 344.213 0 01-39.23-6.47c-6.54-1.5-13-3.24-19.45-5.1-2.5-.72-5.56-1.45-7.75.42-2.19 1.87-2.22 5.13-2.52 7.72a1030.493 1030.493 0 00-4.08 43.48c-.52 7.333-.963 14.643-1.33 21.93-.09 1.81-.17 3.63-.25 5.45a37.788 37.788 0 00-.14 5.21 4.723 4.723 0 001.79 3.41 11.192 11.192 0 003.53 1.61 315.69 315.69 0 0039.09 10.17 186.639 186.639 0 0040.23 3.5c3.24-.1 6.474-.313 9.7-.64a.528.528 0 00.28-.93c7.85-7.53 15.46-15.69 20.33-25.52a51.679 51.679 0 004.89-15.47c.39-2.67.52-5.35.67-8 .15-2.65.3-5.54.43-8.31.28-6.09.52-12.18.59-18.28.04-2.87.11-5.74-.02-8.58z" fill="#FFBF1B"/><path opacity=".15" d="M153.56 182.18c3.24-.1 6.474-.313 9.7-.64a.522.522 0 00.278-.121.522.522 0 00.167-.555.526.526 0 00-.165-.254c7.85-7.53 15.46-15.69 20.33-25.52a51.679 51.679 0 004.89-15.47c.39-2.67.52-5.35.67-8 .15-2.65.3-5.54.43-8.31.28-6.09.52-12.18.59-18.28 0-2.84.11-5.71 0-8.55a3.918 3.918 0 00-1.83-3.31 5.17 5.17 0 00-1.48-.44L69.71 165.79c.267.425.606.8 1 1.11a11.192 11.192 0 003.53 1.61 315.645 315.645 0 0039.09 10.17 186.639 186.639 0 0040.23 3.5z" fill="#fff"/><path d="M72.9 104.61a963.354 963.354 0 00-2.26 26.29c-.52 7.333-.963 14.643-1.33 21.93-.09 1.81-.17 3.63-.25 5.45a37.788 37.788 0 00-.14 5.21 4.723 4.723 0 001.79 3.41 11.192 11.192 0 003.53 1.61 315.69 315.69 0 0039.09 10.17 186.639 186.639 0 0040.23 3.5c3.24-.1 6.474-.313 9.7-.64a.528.528 0 00.28-.93c7.85-7.53 15.46-15.69 20.33-25.52a51.679 51.679 0 004.89-15.47c.39-2.67.52-5.35.67-8 .15-2.65.3-5.54.43-8.31.28-6.09.52-12.18.59-18.28v-.39l-117.55-.03z" fill="#0075E7" opacity=".56"/><path d="M60.11 139.24a4.15 4.15 0 003.18 5.07l93.64 19.45a3.994 3.994 0 002.99-.526 3.996 3.996 0 001.76-2.474 3.998 3.998 0 00-1.624-4.247 4.001 4.001 0 00-1.476-.623L65 136.19a4.139 4.139 0 00-4.89 3.05z" fill="#E1EAF9"/><path d="M122.92 152.57a4.127 4.127 0 001.84 4.51l32.17 6.68a4.002 4.002 0 102.55-7.59l-31.69-6.65a4.132 4.132 0 00-4.87 3.05z" fill="#B3DFFF"/><path d="M190.5 99.66c-6 .39-12.1.33-18.13.15-8.79-.25-17.57-.83-26.33-1.61a522.993 522.993 0 01-28.62-3.37c-8.88-1.32-17.74-2.87-26.5-4.9a144.369 144.369 0 01-16-4.49c0 .35-.07.69-.11 1 4.21 1.48 8.54 2.65 12.84 3.71 8.59 2.12 17.31 3.72 26 5.09a481.12 481.12 0 0028.53 3.57c9 .88 18.07 1.53 27.13 1.87a209.85 209.85 0 0021.15-.05c.05-.3.04-.63.04-.97z" fill="#fff"/><path d="M93.15 92l-30.83 37.68a5.407 5.407 0 00.641 7.515 5.406 5.406 0 002.47 1.215l58.059 11.85a4.886 4.886 0 004.84-1.79l31.77-40.71a3.186 3.186 0 00.488-3.045 3.193 3.193 0 00-2.318-2.035L99.44 89.81A6.38 6.38 0 0093.15 92z" fill="#F8FBFF"/><path d="M128.33 148.48l31.77-40.71a3.186 3.186 0 00.488-3.045 3.2 3.2 0 00-2.318-2.035 6.32 6.32 0 00-3.75 2.22l-32.33 39.5a4.009 4.009 0 00-.867 3.024 3.992 3.992 0 001.587 2.716l.59.12a4.889 4.889 0 004.83-1.79zm-17.104-28.109c1.318-2.281.955-4.957-.81-5.976-1.765-1.019-4.264.005-5.581 2.286-1.317 2.282-.954 4.957.811 5.976 1.765 1.019 4.263-.004 5.58-2.286z" fill="#A7C3EA"/><path d="M131.81 153.09a8.834 8.834 0 00-.34 2.33.513.513 0 00.5.5.5.5 0 00.5-.5v-.96c0-.05 0 .08 0 0 .052-.358.129-.712.23-1.06a.517.517 0 00-.35-.62.497.497 0 00-.61.35l.07-.04zm2.6.16a23.54 23.54 0 00-.42 2.64.5.5 0 00.5.5.508.508 0 00.5-.5c0-.21 0-.42.07-.63v-.06a.818.818 0 000-.14v-.32c.07-.41.14-.82.23-1.22a.517.517 0 00-.35-.62.512.512 0 00-.61.35h.08zm2.13.63l-.49 2.43a.512.512 0 00.35.61.51.51 0 00.62-.35l.48-2.42a.51.51 0 00-.051-.393.517.517 0 00-.949.123h.04z" fill="#6FA7C9"/><path d="M152.64 158.81c1.21 4.66-2.45 9.28-6.68 10.83-5.54 2-11.5.06-16.7-2-5-2-10.7-4.49-16.16-2.69-4.83 1.59-8.15 6.27-13.52 6.39-5.37.12-10.14-3.2-13.06-7.38a19.21 19.21 0 01-3.24-14.11c.86-5.27 3.46-10 5.78-14.79 2.13-4.36 4.64-9.28 4.17-14.3a8.792 8.792 0 00-2.91-5.94 16.006 16.006 0 00-5.67-2.78 32.227 32.227 0 01-6.2-2.29 10 10 0 01-4.56-5.5 9.84 9.84 0 01-.5-3.61.499.499 0 00-.853-.353.498.498 0 00-.147.353 11 11 0 002.18 7 12.238 12.238 0 005.51 3.94c4 1.57 9.53 2.06 11.49 6.56a11.93 11.93 0 01.18 7.63 40.704 40.704 0 01-2.92 7.45c-2.31 4.87-5.06 9.65-6.24 15a20.52 20.52 0 002.09 14.74A18.573 18.573 0 0096.49 172c2.559.589 5.239.333 7.64-.73 2.38-1.08 4.36-2.81 6.59-4.13a12.665 12.665 0 018-1.73 33.626 33.626 0 018.49 2.46c5.42 2.14 11.12 4.45 17 3.26 4.57-.91 8.86-4.52 9.54-9.3a8.278 8.278 0 00-.19-3.29.515.515 0 00-.945-.131.515.515 0 00-.055.391l.08.01z" fill="#7F7F7F"/><path d="M149.7 158.24c1.37.38 2.75.69 4.15.94a.52.52 0 00.62-.35.512.512 0 00-.35-.61c-1.4-.26-2.78-.57-4.15-.94a.52.52 0 00-.584.758.522.522 0 00.314.242v-.04zm-80.83-61.9l.5 3.14a2.189 2.189 0 002.46 1.82l2.82-.38a2.182 2.182 0 001.87-2.5l-.61-4-7.04 1.92z" fill="#6FA7C9"/><path d="M70.36 54.582l-15.097 2.084a3.61 3.61 0 00-3.083 4.07l4.922 35.651a3.61 3.61 0 004.07 3.083l15.097-2.084a3.61 3.61 0 003.082-4.07l-4.922-35.652a3.61 3.61 0 00-4.07-3.082z" fill="#ADADAD"/><path d="M74.279 54.04l-15.097 2.085a3.61 3.61 0 00-3.083 4.07l4.922 35.652a3.61 3.61 0 004.07 3.082l15.097-2.084a3.61 3.61 0 003.082-4.07l-4.922-35.652a3.61 3.61 0 00-4.07-3.082z" fill="#F2F4F4"/><path d="M73.293 57.012l-11.603 1.64a3.61 3.61 0 00-3.069 4.08l4.09 28.918a3.61 3.61 0 004.08 3.068l11.602-1.64a3.61 3.61 0 003.068-4.08L77.372 60.08a3.61 3.61 0 00-4.08-3.068z" fill="#D3D3D3"/><path d="M81.06 89.66l-4-28.94A3.61 3.61 0 0073 57.64l-11.61 1.6a3.63 3.63 0 00-2.58 1.71 3.52 3.52 0 011.76-.77l11.61-1.61a3.62 3.62 0 014.07 3.08l4 28.95a3.611 3.611 0 01-.5 2.36 3.6 3.6 0 001.31-3.3zM63.78 57.82a.5.5 0 100-1 .5.5 0 000 1zm1.79-.28c1.05-.19 2.1-.37 3.16-.51a.5.5 0 00.35-.61.52.52 0 00-.62-.35c-1.06.14-2.11.31-3.16.51a.5.5 0 00-.35.62.51.51 0 00.62.34zm6.96 39.64a1 1 0 100-2 1 1 0 000 2z" fill="#A3A3A3"/><path d="M72.53 95.18a1.098 1.098 0 00-.26 0 1 1 0 010 1.89c.083.035.17.056.26.06a1 1 0 000-1.95z" fill="#757575"/><path opacity=".14" d="M74.28 54l-15.1 2.09a3.6 3.6 0 00-3.08 4.06l4.9 35.7a3.602 3.602 0 001.57 2.49l14.87-43.13A3.62 3.62 0 0074.28 54z" fill="#757575"/><path opacity=".47" d="M77.25 62.06c-3.053 9.24-6.18 18.453-9.38 27.64a1572.12 1572.12 0 01-2 5.65c.163.015.327.015.49 0l.6-.08a1871.92 1871.92 0 009.24-26.84l1.35-4.09-.3-2.28zm1.28 9.31a238.574 238.574 0 00-4.8 15.33.52.52 0 00.758.584.518.518 0 00.242-.314c1.24-4.51 2.63-9 4.14-13.4l-.34-2.2zm-.77 16.1c-1 2.18-1.88 4.41-2.7 6.66l1.12-.15c.75-2 1.56-4 2.45-6 .26-.59-.63-1.1-.87-.51z" fill="#fff"/><path d="M189.43 131.59c0-.3 0-.6.05-.9a2.178 2.178 0 00-.34.05c-8.68 2.35-18.22 5.28-23 13.56-2.21 3.8-3.23 8.48-1.92 12.76.29.95.74 1.85 1 2.79a3.822 3.822 0 01-.48 3c-1.13 2.31-2.44 4.55-3.72 6.78a205.298 205.298 0 01-7.87 12.58h.4c1.94-.06 3.87-.17 5.81-.31 1.6-2.47 3.17-5 4.67-7.5 1.28-2.17 2.53-4.36 3.73-6.57 1.2-2.21 2.6-4.46 2.63-7 0-2.27-1.34-4.13-1.69-6.31a10.77 10.77 0 01.56-5.18 16.604 16.604 0 017.41-8.62c3.84-2.32 8.17-3.59 12.48-4.76.12-1.48.2-2.96.28-4.37z" fill="#000"/><path d="M47.4 111.67a3.612 3.612 0 004.07 3.08l15.1-2.09a3.608 3.608 0 003.08-4.07l-.55-4H46.43l.97 7.08z" fill="#16205B"/><path d="M387.75 230.92a2704.874 2704.874 0 00-3.78-15.22c-2.59-10.24-5.29-20.46-8.34-30.57a45.085 45.085 0 00-2.26-6.83c-.73-1.5-2-2.9-3.79-2.82a6.787 6.787 0 00-2.89 1.08 34.446 34.446 0 00-3.31 2.17c-1.93 1.42-3.79 2.93-5.73 4.33-15.33 11.06-33.52 17.67-52 20.91a61.703 61.703 0 00-6.47 1.15 5.78 5.78 0 00-4.07 3.22c-.76 1.93-.25 4.05.15 6a1078.894 1078.894 0 008.59 38.86c.56 2.36 1.127 4.717 1.7 7.07-.18 2.1 1.42 3.62 3.35 4.14 1.011.226 2.045.334 3.08.32h4.23a102.65 102.65 0 0015.32-1.9c5.1-1 10.16-2.2 15.19-3.47 4.63-1.16 9.23-2.42 13.76-3.91a104.915 104.915 0 0013.27-5.45c3.95-2 8.11-4.13 11.37-7.13a10.196 10.196 0 003.19-5c.56-2.31-.01-4.69-.56-6.95z" fill="#FE5050"/><path d="M385.12 242.91c-3.26 3-7.42 5.18-11.37 7.13a104.76 104.76 0 01-13.35 5.38c-4.53 1.49-9.13 2.75-13.76 3.91-5 1.27-10.09 2.48-15.19 3.47a102.666 102.666 0 01-15.32 1.9 63.467 63.467 0 01-4.23 0 13.352 13.352 0 01-3.08-.32c-1.93-.52-3.53-2-3.35-4.14-.573-2.347-1.14-4.703-1.7-7.07a1291.116 1291.116 0 01-7-31.13c-.54-2.567-1.07-5.143-1.59-7.73a24.15 24.15 0 01-.51-3.07 4.753 4.753 0 00-1.64 2.07c-.76 1.93-.25 4.05.15 6a1078.894 1078.894 0 008.59 38.86c.56 2.36 1.127 4.717 1.7 7.07-.18 2.1 1.42 3.62 3.35 4.14 1.011.226 2.045.333 3.08.32h4.23a102.666 102.666 0 0015.32-1.9c5.1-1 10.16-2.2 15.19-3.47 4.63-1.16 9.23-2.42 13.76-3.91a104.712 104.712 0 0013.35-5.42c3.95-2 8.11-4.13 11.37-7.13a10.196 10.196 0 003.19-5c.115-.483.185-.975.21-1.47a13.25 13.25 0 01-1.4 1.51z" fill="#16205B"/><path d="M295.48 215.68c10.93-2.38 21.85-4.86 32.5-8.31 11.64-3.78 22.9-8.78 33-15.82a158.403 158.403 0 0013.43-10.69c-.11-.34-.22-.68-.35-1-3.83 3.37-7.76 6.63-11.89 9.64a106.615 106.615 0 01-15.9 9.5c-10.88 5.32-22.52 8.9-34.24 11.84-5.56 1.39-11.15 2.63-16.75 3.85.07.31.14.67.2.99z" fill="#F8FBFF"/><path d="M320 202.05l-.19.92 3.14 2.2 9.15 1.66-1.57 7.63-3.34 7-5.29 10.3 2.32 13.37s-13.33 1.22-12.74-15.52c.59-9.34 8.64-16 8.64-16l-2.42-3.88 1.37-6.63.93-1.05z" fill="#F15928"/><path d="M320.01 202.05l-.92 1.09-1.37 6.63 2.42 3.88 2.83-8.48-3.14-2.2.18-.92z" fill="#A0A0A0"/><path d="M330.12 247.183c7.623-.251 13.563-7.743 13.268-16.735-.295-8.992-6.714-16.078-14.337-15.828-7.623.25-13.563 7.743-13.268 16.734.295 8.992 6.714 16.079 14.337 15.829z" fill="#E5E5E5"/><path d="M333.474 240.079c3.351-.11 5.935-4.227 5.772-9.195-.163-4.967-3.012-8.906-6.362-8.796-3.351.11-5.935 4.227-5.772 9.195.163 4.968 3.012 8.906 6.362 8.796z" fill="#B7B7B7"/><path d="M339.26 230.85c-.16-5-3-8.9-6.36-8.79a4.5 4.5 0 00-2.35.79c3.25.09 6 3.94 6.12 8.78.12 3.72-1.3 7-3.42 8.4h.24c3.35-.1 5.94-4.21 5.77-9.18z" fill="#A0A0A0"/><path d="M341.56 222.87a25.014 25.014 0 00-3.46 2.94c-6.17 6.35-8 14.92-5 20.86 6.17-1.79 10.61-8.45 10.35-16.25a18.616 18.616 0 00-1.89-7.55z" fill="#000"/><path d="M363.169 244.214c6.355-8.448 6.236-19.26-.266-24.15-6.501-4.891-16.923-2.007-23.277 6.441-6.354 8.448-6.235 19.26.266 24.15 6.502 4.891 16.923 2.007 23.277-6.441z" fill="#E5E5E5"/><path d="M365.567 245.736c5.633-7.49 5.435-17.147-.444-21.569-5.879-4.422-15.212-1.935-20.846 5.555s-5.435 17.147.444 21.569c5.879 4.422 15.212 1.935 20.846-5.555z" fill="#B7B7B7"/><path d="M357.22 182.24a20.245 20.245 0 00-11.66-2.3c-7.87.72-14.59 5.78-19 12.14a35.843 35.843 0 00-5.3 11.91l1.68 1.18 8.23 1.49c1.09-6.17 3.52-12.26 8.21-16.57 4.3-3.94 10.28-6.08 16-4.51a13.55 13.55 0 017.8 5.46.323.323 0 00.36.118.322.322 0 00.22-.308c-.23-3.85-3.34-6.85-6.54-8.61z" fill="#7F260E"/><path d="M361.56 187.92a9.435 9.435 0 00-.51-1.22.605.605 0 00.016-.756.607.607 0 00-.206-.174 16.999 16.999 0 00-19.78 2.95 16.832 16.832 0 0114.37-3.14 14.212 14.212 0 015.74 3.1.608.608 0 00.37-.76z" fill="#000"/><path d="M372.72 205a22.487 22.487 0 00-2.84-14.85 24.512 24.512 0 00-12.4-10.84c-10.45-3.73-22.57 0-29.93 8.14a33.187 33.187 0 00-7.48 15.66l2.44 1.7c1.69-8.39 6.5-16.25 14.2-20.33a23.275 23.275 0 0112.66-2.74c2.371.13 4.684.786 6.77 1.92a13.326 13.326 0 014.55 4.59c2.86 4.63 3.47 10.37 3.09 15.7a.315.315 0 00.016.136.308.308 0 00.074.114.242.242 0 00.22.25c2.77.34 5.55.69 8.32 1.06a.331.331 0 00.365-.334.324.324 0 00-.055-.176z" fill="#F15928"/><path d="M369.88 190.18a24.512 24.512 0 00-12.4-10.84 25.797 25.797 0 00-12.43-1.14c.73 0 1.45.06 2.17.14 3.769.4 7.411 1.589 10.69 3.49 3.29 2 5.59 5.57 7.13 9a20.8 20.8 0 011.69 11.17 7.163 7.163 0 00-.18 2.6.976.976 0 00.08.17l5.78.74a.331.331 0 00.365-.334.324.324 0 00-.055-.176 22.487 22.487 0 00-2.84-14.82z" fill="#BDE4FF"/><path d="M323 205.17l8.51 1.54 1.24-6-8.49-1.71-2.33-1.88a.264.264 0 00-.122-.054.265.265 0 00-.246.085.284.284 0 00-.062.119l-1.56 5.83 3.06 2.07z" fill="#E5E5E5"/><path d="M332.72 200.69l-8.46-1.74h-.01l-1.28 6.22 8.51 1.54 1.24-6.02zm30.24-.03l3.67-.6 7.13 3.61-.39 8.3-10.58-2.18.17-9.13z" fill="#B7B7B7"/><path d="M373.76 203.67l-7.13-3.61-1.07 10.3 7.81 1.61.39-8.3z" fill="#E5E5E5"/><path d="M371 221.83c.342 4.656.16 9.335-.54 13.95a22.704 22.704 0 01-6.16 12.36c-3.38 3.24-8.36 5-12.89 3.8a9.936 9.936 0 01-3.68-1.83 10.612 10.612 0 01-3.47-9.29 18.658 18.658 0 014.13-9.33 85.246 85.246 0 017.09-7.52 20.004 20.004 0 004.12-5.32c1.4-2.94 1.38-5.87 2.08-9.6a23.969 23.969 0 013.93-1.41s6.12 2.7 9.08 4.14c0 0-.3 3.46-.47 5.13-1.13 1.61-2.22 3.32-3.22 4.92z" fill="#F15928"/><path d="M367.3 222.74c1.22.54 2.47 1 3.73 1.46 0-.79 0-1.57-.08-2.35l-3-1.31c-1.11-.49-2.27-.92-3.34-1.51a2.507 2.507 0 01-1.58-2.51c.11-1.37.35-2.75.53-4.11a.61.61 0 00-.38-.68c.18-1.18.37-2.36.59-3.54-.47.16-.93.35-1.39.55a125.16 125.16 0 00-.83 5.17c-.23 1.63-.73 3.61 0 5.19a4.998 4.998 0 003.18 2.41c.83.49 1.71.85 2.57 1.23z" fill="#000"/><path d="M371 221.83c1.08-1.6 2.14-3.32 3.22-4.92.17-1.67.47-5.13.47-5.13-3-1.44-9.08-4.14-9.08-4.14-.928.251-1.839.558-2.73.92l-.08 8.33a2.999 2.999 0 002.05 2.89l6.15 2.08v-.03z" fill="#A0A0A0"/><path d="M365.76 207.73l.7 4.86a2.1 2.1 0 001.28 1.66l6.41 2.67c.17-1.66.47-5.13.47-5.13-2.62-1.3-7.81-3.6-8.86-4.06z" fill="#B7B7B7"/><path d="M365.47 225.26c-6-2.54-11.65 1-15.07 3.82-.71.78-1.41 1.57-2.06 2.41a18.658 18.658 0 00-4.13 9.33 10.606 10.606 0 003.47 9.29 9.936 9.936 0 003.68 1.83c4.53 1.19 9.51-.56 12.89-3.8a22.7 22.7 0 006.16-12.36c0-.2.06-.41.1-.61.01-4.52-1.28-8.32-5.04-9.91z" fill="#BDE4FF"/><path d="M365.79 245.419c3.606-4.793 3.816-10.719.471-13.235-3.346-2.517-8.981-.671-12.586 4.122-3.606 4.793-3.816 10.719-.471 13.236 3.346 2.516 8.981.67 12.586-4.123z" fill="#F15928"/><path d="M362.154 242.684c1.438-1.911 1.519-4.276.181-5.282-1.337-1.006-3.586-.272-5.024 1.639-1.437 1.911-1.519 4.276-.181 5.282 1.337 1.006 3.587.272 5.024-1.639z" fill="#E5E5E5"/><path d="M125.47 239.18c-2.91-1.76-6.37-2.23-9.7-2.54-4.19-.38-8.39-.7-12.59-1.05L78 233.5a.826.826 0 00-.75.3c-3-.23-6-.44-9-.61-5.71-.33-13.45-.7-16.61 5.25-2.51 4.72.19 10.43 4.19 13.34a23.2 23.2 0 008.62 3.52c3.46.78 7 1.3 10.49 1.86a475.695 475.695 0 0021.7 3c3.753.44 7.503.84 11.25 1.2 3.348.42 6.716.66 10.09.72a14.727 14.727 0 008.59-2.44 12.35 12.35 0 004.53-6.49 12.598 12.598 0 00-5.63-13.97z" fill="#27AAE1"/><path d="M78 233.5a.826.826 0 00-.75.3c-3-.23-6-.44-9-.61-5.71-.33-13.45-.7-16.61 5.25a8.22 8.22 0 00-.95 4.21 184.292 184.292 0 0023.66 5c3.846.658 7.784.533 11.58-.37a15.999 15.999 0 008.85-6.38 15.437 15.437 0 002.38-5.82L78 233.5z" fill="#16205B"/><path d="M88.07 219.11c-3.53-1.72-7.68-2.21-11.48-3-4.16-.92-8.32-1.84-12.48-2.8-8.22-1.89-16.41-3.94-24.48-6.4-4-1.22-7.957-2.553-11.87-4-3.82-1.42-7.65-3.47-11.67-4.22A12.996 12.996 0 005 201.43a13.779 13.779 0 00-4.71 9.78v.94a15 15 0 001.63 8.15c1.65 3.14 4.65 5.34 7.78 6.86a120.393 120.393 0 0011.47 4.54c8 2.913 16.123 5.477 24.37 7.69a193.566 193.566 0 0025.18 5.41 28.91 28.91 0 0011.57-.37 15.999 15.999 0 008.85-6.38c4.01-5.78 3.99-15.48-3.07-18.94z" fill="#E1F7FF"/><path d="M352.56 291.64c-3.06-2-6.95-2.41-10.53-2.1-4.06.35-8.08 1.2-12.11 1.75a251.308 251.308 0 01-25.41 2.12c-4.26.14-8.523.177-12.79.11a90.03 90.03 0 00-12.18.24c-6.9.82-13.92 3.64-17.64 9.86a14.756 14.756 0 00-1.41 3.14 3.152 3.152 0 00-.72 1.72c-.89 7.64 6.33 13 13 14.38 3.911.66 7.874.971 11.84.93 4.24.1 8.483.1 12.73 0a314.6 314.6 0 0025.41-1.55c4.28-.43 8.56-1 12.82-1.55 3.33-.379 6.631-.98 9.88-1.8 5.92-1.66 12-5.37 13.36-11.85a15.121 15.121 0 00-6.25-15.4z" fill="#16205B"/><path d="M355.56 287.64c-3.06-2-6.95-2.41-10.53-2.1-4.06.35-8.08 1.2-12.11 1.75a251.308 251.308 0 01-25.41 2.12c-4.26.14-8.523.177-12.79.11a90.03 90.03 0 00-12.18.24c-6.9.82-13.92 3.64-17.64 9.86a14.756 14.756 0 00-1.41 3.14 3.152 3.152 0 00-.72 1.72c-.89 7.64 6.33 13 13 14.38 3.911.66 7.874.971 11.84.93 4.24.1 8.483.1 12.73 0a314.6 314.6 0 0025.41-1.55c4.28-.43 8.56-1 12.82-1.55 3.33-.379 6.631-.98 9.88-1.8 5.92-1.66 12-5.37 13.36-11.85a15.121 15.121 0 00-6.25-15.4zM19 242.21a1.806 1.806 0 00-.94-.4l-1.38-.39c-1-.29-1.9-.6-2.83-.95a47.155 47.155 0 01-6.1-2.76.519.519 0 00-.75.42 10.82 10.82 0 00-.9 2.54.5.5 0 00.23.56 26 26 0 0010.4 3.77c.82.11 1.39.05 1.8-.72.28-.53.99-1.5.47-2.07zm93-14.64a99.397 99.397 0 01-13.23-1.19.535.535 0 00-.498-.207.526.526 0 00-.422.337c-.306.93-.474 1.901-.5 2.88a.501.501 0 00.36.48A48.49 48.49 0 00111.7 231a.516.516 0 00.48-.37c.12-.8.23-1.6.34-2.4a.502.502 0 00-.52-.66zm-19.29-28.93a116.545 116.545 0 01-26.07-6.87 107.484 107.484 0 01-7.15-3.12.581.581 0 00-.22 0 .48.48 0 00-.47.37v.13l-.57 4.26a.289.289 0 000 .09.4.4 0 00.13.43 19.867 19.867 0 005.05 3.19 60.08 60.08 0 007.41 2.87 72.846 72.846 0 0016.38 3.46 30.3 30.3 0 003.69.11c.65 0 1.37 0 1.58-.77a33.6 33.6 0 00.63-3.47.521.521 0 00-.39-.68zm64.69 24.71a.477.477 0 00-.366-.559.48.48 0 00-.244.009c-1.608.415-3.26.637-4.92.66-1.76.12-3.52.2-5.29.24-3.48.07-7 0-10.45-.21a.49.49 0 00-.48.36c-.31 1.28-.53 2.58-.66 3.89a.49.49 0 00.37.48c4.25 1.22 8.79 1.14 13.17 1a42.93 42.93 0 006.59-.59 2.824 2.824 0 001.27-.39 1.4 1.4 0 00.43-1c.21-1.22.41-2.44.61-3.67a.485.485 0 00-.03-.22z" fill="#FFD215"/><path d="M143.92 241.76c-7.667-.04-15.333-.11-23-.21a.726.726 0 00-.63.4c-.17.991-.237 1.996-.2 3a.513.513 0 00.5.5c7.62.547 15.257.72 22.91.52a.508.508 0 00.49-.36c.248-1.111.392-2.242.43-3.38a.51.51 0 00-.5-.47z" fill="#fff"/><path d="M223.35 474.19a23.712 23.712 0 01-1.11-7.66c.06-1.85.17-4.06-1.44-5.32a13.772 13.772 0 00-3.6-1.63c-1.36-.52-2.74-1-4.13-1.43a.403.403 0 00-.384-.286.397.397 0 00-.166.036c-3.11 1.12-6.27-.34-8.82-2.1-1.35-.93-2.63-2-4-2.89a36.071 36.071 0 00-4-2.37 35.723 35.723 0 00-4.35-1.9c-.69-.25-1.38-.49-2.08-.69a2.532 2.532 0 00-1.91-.06 3.128 3.128 0 00-1.14 1.51l-1.14 2.31c-.72 1.47-1.45 2.94-2.25 4.36a39.08 39.08 0 01-11.47 12.66 47.718 47.718 0 01-7.27 4.27 66.768 66.768 0 01-8.29 3.13c-3 1-6.22 2.28-8 5.07-1.46 2.28-1.5 5.55.53 7.49a.503.503 0 00.44.72h76.81a.45.45 0 00.46-.35.496.496 0 00.12-.23c.98-5.12-1.35-9.83-2.81-14.64z" fill="#0975E7"/><path d="M209.5 485.49h16.87c0-.34 0-.67-.09-1H194a.547.547 0 00.11-.29 18.86 18.86 0 00-.64-5.53 10.013 10.013 0 003.39-1.85 11.63 11.63 0 002.53-3.77 11.762 11.762 0 012.56-3.78 8.287 8.287 0 014.15-2c.64-.11.37-1.07-.26-1a9.47 9.47 0 00-3.993 1.769 9.46 9.46 0 00-2.777 3.371 19.877 19.877 0 01-2.29 4 8.283 8.283 0 01-3.61 2.24 12.108 12.108 0 00-5.95-7.16c3-2.57 5.95-5.26 8.75-8.08a.503.503 0 00-.71-.71 139.186 139.186 0 01-14.73 12.93.556.556 0 00-.18.25 19.88 19.88 0 00-12.27-4c-.65.38-1.31.76-2 1.12a19.173 19.173 0 0120.2 12.46h-8a16.996 16.996 0 00-14.74-11.22c-.8.37-1.61.71-2.43 1a15.762 15.762 0 0116.1 10.19h-30.4a5.388 5.388 0 000 1h62.69v.06zm-28.44-10c1.81-1.37 3.57-2.8 5.31-4.25a11.243 11.243 0 015.93 7 .549.549 0 00.13.46c.503 1.771.726 3.61.66 5.45a.4.4 0 00.09.29h-5.83a20.437 20.437 0 00-6.29-8.92v-.03z" fill="#fff"/><path d="M367.63 481.62c-1.61-2.37-4.26-3.59-6.91-4.45a80.918 80.918 0 01-8.3-2.81 42.202 42.202 0 01-18.63-16.17 53.467 53.467 0 01-4.1-8.45 4.207 4.207 0 00-1-1.8 1.933 1.933 0 00-1.9-.14c-1.63.5-3.25 1.09-4.85 1.68a144.84 144.84 0 00-20.29 9.32.409.409 0 00-.41 0l-3.41 1.2a8.383 8.383 0 00-2.69 1.17 3.429 3.429 0 00-1 2.37c-.14 1.2-.26 2.41-.45 3.61a66.524 66.524 0 01-1.5 7.11c-.61 2.26-1.35 4.49-1.83 6.79a16.381 16.381 0 000 7.5v.08a.452.452 0 00.47.41h77a.474.474 0 00.464-.352.486.486 0 00.006-.208 6.467 6.467 0 00-.67-6.86z" fill="#0975E7"/><path d="M351 485.49h17.1a.501.501 0 000-1h-23.78a12.94 12.94 0 017.44-6.69 17.843 17.843 0 018.45-.78c-1.25-.4-2.5-.77-3.73-1.16a16.587 16.587 0 00-5.33 1.11 13.912 13.912 0 00-7.92 7.52h-12.88a16.178 16.178 0 016-7.82.572.572 0 00.47-.31c.22-.15.43-.3.66-.44a26.55 26.55 0 0111.15-3.47c-.46-.26-.91-.54-1.36-.82a26.991 26.991 0 00-11 3.87l-16.79-14.77c-.48-.42-1.19.28-.71.71l10.76 9.46a.501.501 0 00-.25.07 16.868 16.868 0 00-6.36 7 6.253 6.253 0 01-3.15-2.9c-.86-1.41-1.57-2.9-2.52-4.26-1.77-2.53-4.3-4.65-7.5-4.84-.65 0-.64 1 0 1 3.39.2 5.8 2.88 7.45 5.6 1.41 2.33 2.57 5.36 5.31 6.33a16.37 16.37 0 00-1.26 5.58h-31.07a.4.4 0 00-.161.025.398.398 0 00-.139.085v.78a.5.5 0 00.31.11H351v.01zm-27.3-6.61a.707.707 0 00.08-.18 15.874 15.874 0 016.09-6.87.453.453 0 00.23-.51l5.41 4.77a17.946 17.946 0 00-3.76 3.68 15.612 15.612 0 00-2.45 4.72h-7a15.658 15.658 0 011.38-5.61h.02z" fill="#fff"/><path d="M217.7 451.54a.48.48 0 00-.21-.38.415.415 0 00-.171-.142.423.423 0 00-.219-.038c-3.7.07-7.29-.89-10.85-1.79-3.56-.9-7.13-1.67-10.74-2.33a.53.53 0 00-.54.8c-.3.67-.61 1.33-.92 2a.528.528 0 00.18.69l3.37 2.29c.567.287 1.012.77 1.25 1.36a2.91 2.91 0 01-.26 1.94 25.796 25.796 0 01-1.88 3.16c-.67 1-1.36 2.09-2.06 3.11a.49.49 0 00-.22.55c.02.087.063.168.124.233.062.065.14.112.226.137 6.05 5.19 15.23 5 22.53 3.08a.468.468 0 00.34-.58c.312-4.691.329-9.397.05-14.09z" fill="#16205B"/><path d="M210.56 450.73c-1.41-.47-2.87-.94-4.27-1.53a168.385 168.385 0 00-10.74-2.33.529.529 0 00-.54.8c-.3.67-.61 1.33-.92 2v.08c6.68 5.69 15 9.36 23.86 8.42 0-2-.06-4-.16-6-.66-.1-1.32-.14-2-.2a22.716 22.716 0 01-5.23-1.24z" fill="#000"/><path d="M318 452.76a26.362 26.362 0 013.51-2.06.433.433 0 00.25-.43.461.461 0 00-.05-.36l-2.32-4.34a.495.495 0 00-.56-.23 181.443 181.443 0 00-21.74 9.6.435.435 0 00-.242.296.437.437 0 00.082.374 66.1 66.1 0 011.54 10.08.482.482 0 00.15.32.463.463 0 00.112.246c.06.069.139.12.228.144a29 29 0 0012.07 1 27.635 27.635 0 005.81-1.39 11.002 11.002 0 004.59-2.76.476.476 0 00.12-.25.428.428 0 00-.06-.4c-.8-1.14-1.59-2.29-2.39-3.44a23.52 23.52 0 01-2.2-3.32 2.175 2.175 0 01-.12-1.86c.3-.501.719-.92 1.22-1.22z" fill="#16205B"/><path d="M313.53 453.9a76.346 76.346 0 007.21-5.76l-1.38-2.57a.495.495 0 00-.56-.23c-2.23.81-4.43 1.68-6.61 2.58l-.54.34c-2.1 1.37-4.21 2.74-6.31 4.09-2.65 1.7-5.32 3.43-8.1 4.91.41 2 .74 4 1 6a82.554 82.554 0 008.29-4.48 58.838 58.838 0 007-4.88z" fill="#000"/><path d="M179.64 213.86a27.34 27.34 0 00-2-5.6 9.692 9.692 0 00-3.26-4.09 25.623 25.623 0 00-5.9-2.3 850.683 850.683 0 00-6.71-2.22l-2.83-.91a.24.24 0 00-.35-.11h-.12c-.3-.1-.44.38-.13.48h.11c-.56 3.43-1 6.87-1.54 10.31l-2.76 19.08c-.88 6.113-1.757 12.227-2.63 18.34l-.87 6.12c-.37 2.61-.66 5.24-2 7.58a55.123 55.123 0 01-5 6.51 63.311 63.311 0 00-4.47 6.34 35.374 35.374 0 00-3.3 6.91 18.074 18.074 0 00-1.21 7.48c.062.625.203 1.24.42 1.83a22.894 22.894 0 00-1 3.9 6.275 6.275 0 00.11 3.52c.204.441.559.796 1 1a17.257 17.257 0 00-.17 2.58 2.586 2.586 0 001.26 2.46c.097.042.197.076.3.1l-.09.55a5.944 5.944 0 00.17 3.42 1.726 1.726 0 001.642 1.012c.228-.01.451-.065.658-.162 1.25-.54 1.67-2 2.16-3.14a47.815 47.815 0 014.53-8.39 32.281 32.281 0 016.35-6.59 67.583 67.583 0 015.76-4.05c-.31 1.95-.62 3.89-.91 5.83-.17 1.15-.33 2.3-.49 3.45-.1.71-.32 1.47.29 2 1.3 1.19 2.85-1.1 3.46-2a54.354 54.354 0 003.12-5.24 33.587 33.587 0 003.74-11.35c.54-4.42-.51-8.81-.3-13.24a60.797 60.797 0 012.53-13.42c1.24-4.36 2.553-8.693 3.94-13 1.37-4.32 2.86-8.61 4.6-12.81a35.01 35.01 0 002.1-6.06c.385-2.03.313-4.121-.21-6.12z" fill="#16205B"/><path d="M174.84 227.79a1 1 0 00-.69-1.23c-3.85-1.23-3.65-7-3.51-10.18.301-4.138.97-8.241 2-12.26a.996.996 0 00-.31-1l-.71-.26a.881.881 0 00-.81.47c-4.36-.07-9.24-.81-12.43-3.95-.12.76-.23 1.53-.35 2.29 3.4 2.67 7.92 3.53 12.29 3.65a56.645 56.645 0 00-1.7 12.94c.05 3.6.62 8.09 4.1 9.83-.055.517.007 1.04.18 1.53a4.001 4.001 0 001.2 1.49c-.124.483-.214.974-.27 1.47 0 .641.112 1.277.33 1.88.048.125.119.241.21.34.51-1.52 1.05-3 1.61-4.54-.5-.94-1.69-1.06-1.14-2.47z" fill="#000"/><path d="M173.81 161.81a54.323 54.323 0 00-3.42-10.81c0-.48-.78-.65-1-.11-2.92 7.62-5.82 15.26-8.79 22.87-1.43 3.66-2.89 7.32-4.47 10.93a179.75 179.75 0 01-2.47 5.42c-.42.87-.84 1.72-1.27 2.58-.446.79-.798 1.629-1.05 2.5-.46 1.89.42 3.62 1.59 5.06a11.686 11.686 0 004.32 3.31c.26.13.44.11.51-.24.2-1.07.34-2.47.54-3.54 4.12 2.36 8.81 4.95 13.68 4.81a.5.5 0 00.48-.36c2.12-13.98 4.25-28.36 1.35-42.42z" fill="#F15928"/><path d="M153.13 199.78c.8 1.13 1.82 2.085 3 2.81.517.299 1.059.554 1.62.76.167-1.18.347-2.36.54-3.54l-2.56-2.61a8.23 8.23 0 00-1.79-1.65 1.532 1.532 0 00-2 .3 2.115 2.115 0 00.12 2.09c.284.653.643 1.27 1.07 1.84z" fill="#7F260E"/><path d="M173.62 195.78a33.118 33.118 0 01-18.18-9.53c-.07.17-.15.34-.23.51a33.594 33.594 0 0018.27 9.5.257.257 0 00.16 0l.06-.4s-.04-.07-.08-.08z" fill="#0075E7"/><path d="M201.35 126.45a2.353 2.353 0 01-.53-3 4.635 4.635 0 011.33-1.53 8.012 8.012 0 011.28-.79l.67-.32c.14.13 0 .15-.53.06l-1.1-.65.16.19-.65-1.1v.31-1.33c-.42 1.79-2.07 4-4 4.4h1.32l.29.2.64 1.11c-.11-.28-.13-.19.07-.58.218-.462.494-.896.82-1.29a4.261 4.261 0 012.49-1.42h-1.33l.2.08-1.66-1.79.07.31V118a3.998 3.998 0 01-1.47 2.17 7.077 7.077 0 01-2.26 1.72h1.33l-.31-.06 1.1.65.11.14.34 1.26c0 .12-.2.23 0 .16s.34-.39.45-.51a7.299 7.299 0 011.23-1 20.24 20.24 0 013.35-1.78 50.38 50.38 0 018.17-2.41 59.805 59.805 0 018.22-1.2c2.68-.337 5.4-.133 8 .6v-4.82a3.618 3.618 0 01-1.82-.13l1.1.64-.16-.19.64 2.43.05-.22-.64 1.1.2-.16-1.1.64a4.7 4.7 0 013.93.67l-.9-.9.17.28-.25-1.92c.42-.51.47-.65.15-.4l-.54.34c-.29.18-.6.35-.91.52-.607.337-1.235.634-1.88.89a2.568 2.568 0 00-1.74 3.08 2.52 2.52 0 003.07 1.74 11.558 11.558 0 014.48-.85l-1.26-4.66c-.432.343-.91.622-1.42.83-.27.1-.55.13-.81.22-.45.16-.41-.18 0 .12l.9.9-.11-.26.25 1.93a13.174 13.174 0 011.81-2.46c1.72-2.36-1.94-4.92-3.93-3a11.84 11.84 0 00-2.57 3.54 2.568 2.568 0 00.89 3.42 2.52 2.52 0 003.42-.9 8.08 8.08 0 011.8-2.52l-3.93-3c-1.4 1.91-4 4.95-.93 6.81 2.12 1.28 5.31.09 7.14-1.25a2.527 2.527 0 001.078-2.797 2.528 2.528 0 00-2.348-1.863 15.468 15.468 0 00-5.81 1l1.33 4.82c2-.8 5.09-1.89 6.28-3.83 1.84-3-1.73-4.95-4.19-5.41-2.21-.42-5.85-.51-6.52 2.25-.89 3.71 4.07 3.79 6.39 3.4a2.512 2.512 0 001.84-2.41 2.579 2.579 0 00-1.84-2.41c-3.67-1.22-7.63-1-11.42-.58-4.063.42-8.08 1.21-12 2.36-3.57 1.06-7.3 2.46-10.09 5-1.3 1.18-2.59 3-2.08 4.82.64 2.33 3.22 2.66 5.05 1.57 2.52-1.52 7.19-5.28 5.65-8.72-1-2.34-3.73-1.59-5.49-.65a9.755 9.755 0 00-3.61 3.49 6.23 6.23 0 00-1 4.93c.73 2.43 3.34 2.79 5.37 1.82a11.248 11.248 0 003.91-3.24c1-1.29 2.21-3.12 2.21-4.82a2.997 2.997 0 00-2-2.91 4.27 4.27 0 00-3.15.37 11.48 11.48 0 00-4.44 3.35c-2.31 3-2.62 7.69.51 10.26a2.57 2.57 0 003.53 0 2.521 2.521 0 000-3.54l-.06-.01z" fill="#767F89"/><path d="M265.45 227.78c-.93-2.12-1.87-4.23-2.81-6.35-.46-1.05-.92-2.1-1.39-3.15a5.006 5.006 0 00-1.69-2.11c-1.46-1.05-3-2-4.45-3.05a52.843 52.843 0 01-4.11-3.51 63.623 63.623 0 01-12.7-17.31 91.258 91.258 0 01-7.44-20.52c-1.05-4.41-1.83-8.87-2.59-13.33-.76-4.46-1.55-9.18-2.32-13.76l-2.33-13.79a23.27 23.27 0 01-.54-3.4c0-1.18 1.26-1.7 2.13-2.24a86.254 86.254 0 015.67-3.22c1-.49 1.94-1 2.93-1.42a.517.517 0 00.179-.684.523.523 0 00-.179-.186l-6.6-3.91a.462.462 0 00-.63.14 133.88 133.88 0 01-19.33 2.45.5.5 0 00-.48.48l-4.15 2.3-2.28 1.26c-.698.335-1.366.726-2 1.17a1.519 1.519 0 00-.5 1.47c.08.86.2 1.72.31 2.58.18 1.53.37 3.06.55 4.6a.384.384 0 00-.11.11c-6.55 9.43-10.26 20.44-12.72 31.56-2.67 12.07-4.16 24.41-5.85 36.65-1 7.333-2 14.65-3 21.95a.518.518 0 00-.38.44 79.217 79.217 0 01-1.71 9.31.327.327 0 000 .17.4.4 0 00.23.51 49.631 49.631 0 0016.37 4.39 139.736 139.736 0 0017.23 1 147.272 147.272 0 0034.42-4.21 145.647 145.647 0 0015.69-4.81 11.356 11.356 0 011.46 3.63.492.492 0 00.51.36h.26a10.993 10.993 0 003.6-2.82 3.393 3.393 0 00.82-2 2.085 2.085 0 000-.25.5.5 0 00-.07-.5z" fill="#F15928"/><path d="M265.45 227.78c-.93-2.12-1.87-4.23-2.81-6.35-.46-1.05-.92-2.1-1.39-3.15a5.006 5.006 0 00-1.69-2.11c-1.46-1.05-3-2-4.45-3.05a52.843 52.843 0 01-4.11-3.51 63.623 63.623 0 01-12.7-17.31 91.258 91.258 0 01-7.44-20.52c-1.05-4.41-1.83-8.87-2.59-13.33-.76-4.46-1.55-9.18-2.32-13.76l-2.33-13.79a23.27 23.27 0 01-.54-3.4c0-1.18 1.26-1.7 2.13-2.24a86.254 86.254 0 015.67-3.22c1-.49 1.94-1 2.93-1.42a.517.517 0 00.179-.684.523.523 0 00-.179-.186l-6.6-3.91a.462.462 0 00-.63.14 133.88 133.88 0 01-19.33 2.45.5.5 0 00-.48.48l-4.15 2.3-2.28 1.26c-.698.335-1.366.726-2 1.17a1.519 1.519 0 00-.5 1.47c.08.86.2 1.72.31 2.58.18 1.53.37 3.06.55 4.6a.384.384 0 00-.11.11c-6.55 9.43-10.26 20.44-12.72 31.56-2.67 12.07-4.16 24.41-5.85 36.65-1 7.333-2 14.65-3 21.95a.518.518 0 00-.38.44 79.217 79.217 0 01-1.71 9.31.327.327 0 000 .17.4.4 0 00.23.51 49.631 49.631 0 0016.37 4.39 139.736 139.736 0 0017.23 1 147.272 147.272 0 0034.42-4.21 145.647 145.647 0 0015.69-4.81 11.356 11.356 0 011.46 3.63.492.492 0 00.51.36h.26a10.993 10.993 0 003.6-2.82 3.393 3.393 0 00.82-2 2.085 2.085 0 000-.25.5.5 0 00-.07-.5z" fill="#F15928"/><path d="M210.85 132.55c0-.52 0-1 .08-1.56a208.27 208.27 0 01-1.72 8.12 114.833 114.833 0 00-9.79-6.73.252.252 0 00-.348.279.25.25 0 00.098.151 115.71 115.71 0 0110.08 6.95.249.249 0 00.306-.053.258.258 0 00.054-.097c.54-2.26 1-4.54 1.47-6.82a.254.254 0 01-.161-.076.253.253 0 01-.069-.164zm8.34 4.01l-5.29 3.14-1.26-6.79a.204.204 0 01-.15.06l-.36-.05 1.35 7.25c.01.036.028.07.053.098a.244.244 0 00.202.078.248.248 0 00.105-.036l5.6-3.32a.245.245 0 00.097-.151.25.25 0 00-.347-.279z" fill="#fff"/><path d="M272.2 142v-.05c-.9-5.41-5.6-9-10.62-10.5-5.81-1.67-11.9-.88-17.87-1 .245-2.82.315-5.652.21-8.48-.1-2.45-.06-5.37-1.57-7.45s-4.37-3-6.75-3.67a40.983 40.983 0 00-8.22-1.48 71.11 71.11 0 00-17.54 1c-5.41.89-11.77 2.32-16 6.09a11.838 11.838 0 00-2.92 13.4 43.077 43.077 0 00-17.39 9.1 31.703 31.703 0 00-6.49 8 10.844 10.844 0 00-1.6 4.69c.056 2.123.51 4.216 1.34 6.17a43.023 43.023 0 012.1-4.32c3.58 9 3.88 18.85 3.67 28.41a247.099 247.099 0 01-.88 16c-.47 5.35-1.45 10.69-1.74 16.05-.26 4.77.59 9.85 4.18 13.29a.453.453 0 00.4.13 13.265 13.265 0 0015.922-.467A13.267 13.267 0 00194 222.53c2-4 1.84-8.63 1.77-13-.08-5.38-.167-10.767-.26-16.16-.17-10.42-.51-20.86-.46-31.29a68.327 68.327 0 011.36-14.77 38.175 38.175 0 012.44-7.3 57.255 57.255 0 002.58-6.11c.58-1.83 1.35-4.59 0-6.24-1.22-1.49-3.4-1.2-4.82-2.34-2.83-2.28.77-5.75 2.7-7.07a18.12 18.12 0 016.76-2.81.41.41 0 00.22 0l.29-.08h.23a.577.577 0 00.21-.09 59.451 59.451 0 0114.18-2.58 50.09 50.09 0 017.35.05c2.18.2 5.35 1.11 5.29 3.86 0 2.49-4 3.45-5.9 4.12-2.06.75-4.17 1.29-6.28 1.87-3.33.92-6.77 2.5-7.3 6.31-.34 2.51.47 5.07 1 7.48.68 2.85 1.35 5.7 2 8.55-6 9.66-6.21 21.47-5.52 32.48.4 6.47 1 12.94.82 19.42a63.087 63.087 0 01-1.15 9.88 56.855 56.855 0 00-1.35 9 16.876 16.876 0 006.78 14.29.464.464 0 00.163.521.449.449 0 00.177.079 50.207 50.207 0 0014 1 93.638 93.638 0 0013.87-1.7 70.47 70.47 0 0013.25-3.74c3.41-1.42 5.63-4 5.08-7.82a36.328 36.328 0 00-2-6.58l-2.5-7.23c-1.6-4.62-3.24-9.24-4.58-13.94-2.47-8.75-3.81-18.05-1.4-27a27.993 27.993 0 016.85-12.34c3.5-3.59 7.86-6.17 12.19-8.62a.463.463 0 00.206-.283.467.467 0 00-.046-.347z" fill="#E1EAF9"/><path d="M220.09 75.4a96.323 96.323 0 00-6.12-8.35c-.15-.18-.31-.4-.49-.6l-.47-.64a.561.561 0 00-.91 0 6.697 6.697 0 00-1.56.78 50.634 50.634 0 00-4.05 2.44 36.133 36.133 0 00-12.36 13.62 28.083 28.083 0 00-2.86 9.84.447.447 0 00.426.493.45.45 0 00.234-.053l12.45 15.67c.26.32.71.09.83-.22a26.836 26.836 0 014.86-8c.49-.57 1-1.12 1.56-1.65.553-.465 1.071-.97 1.55-1.51a2.822 2.822 0 00.52-2.07 16.05 16.05 0 010-2.5 26.328 26.328 0 013-9.38c.71-1.46 1.51-2.88 2.2-4.36a5.187 5.187 0 00.53-2.84c.41.18.96-.21.66-.67z" fill="#D34620"/><path d="M206.22 69.26c.25.598.338 1.25.255 1.893a3.681 3.681 0 01-.725 1.767c-.86.93-2.09.52-3.17.95a3.682 3.682 0 00-1.71 1.93c-.208.434-.516.81-.9 1.1a9.765 9.765 0 01-1.35.64 2.525 2.525 0 00-1.59 2c-.1 1 .44 2.1.21 3.12s-1.23 1.49-1.95 2a4.349 4.349 0 00-1.66 2.31 14.722 14.722 0 00-.18 3.57 3.802 3.802 0 01-.189 1.566 3.803 3.803 0 01-.811 1.354l.62.77c1.56-1.27 1.37-3.55 1.39-5.41a3.872 3.872 0 011.15-3.12 11.212 11.212 0 002.21-1.9 3.916 3.916 0 00.33-3 3.1 3.1 0 010-1.6 2.066 2.066 0 011.23-1 4.258 4.258 0 002.22-1.71c.218-.437.462-.861.73-1.27a2 2 0 011.64-.69 3.523 3.523 0 003-1.6 5 5 0 00.27-4 .49.49 0 00-.21-.27l-.49.31-.32.29zm7.54 22.67a4.2 4.2 0 01-1.12 0c-2.67-.47-4.19-3.09-5.42-5.25a1 1 0 00-1.72 1c1.35 2.38 2.94 4.84 5.61 5.87a5.66 5.66 0 002.53.36v-1.26c.06-.24.09-.48.12-.72zm-9.5 8.07a5.442 5.442 0 01-5.47-2.91.513.513 0 00-.596-.218.509.509 0 00-.194.118c-.53.56-1 1.14-1.52 1.73l.63.8c.38-.46.78-.9 1.18-1.34a6.387 6.387 0 006 2.82.513.513 0 00.5-.5.506.506 0 00-.157-.365.51.51 0 00-.373-.135z" fill="#000"/><path d="M235.25 97.39a31.506 31.506 0 00-1.69-7.9 35.378 35.378 0 00-3.47-7.23c-1.26-2-2.89-3.79-5.26-4.4a13.36 13.36 0 00-7.55.69c-2.38.83-2.3 4.18-4 6.06-1.86 2-5.17 2.32-5.14 5.09 0 4.65 0 6.59.05 9.77l-1.37-.07a15.304 15.304 0 00-.85-7.64c-.81-2.08-2.23-4.7-4.62-5.23-2.39-.53-4.2 1.56-4.56 3.72a9.42 9.42 0 001.51 6.6 10.258 10.258 0 005.46 4.21c-.07 7.83-.5 15.67-1.3 23.46a.194.194 0 00.11.2c2.75 2.1 5.56 4.13 8.31 6.23 0 .52-.05 1-.08 1.56 0 .14.12.23.25.25l1.39.17c.17 0 .27-.18.24-.32l-.38-1.81a16.399 16.399 0 012-.82c.09 0 .2-.13.18-.24a5.53 5.53 0 01.203-2.262 5.537 5.537 0 011.097-1.988 8.401 8.401 0 013.69-2.18c3.12-1 6.38-1.78 9.56-2.64a.262.262 0 00.17-.31l-2.46-10.27a10 10 0 007.4-5.21 14.158 14.158 0 001.11-7.49z" fill="#16205B"/><path d="M231.5 84.74c-1.59 1.26-4.25.84-6.11 1.16A15.22 15.22 0 00219 89c-1.81 1.35-3.9 3.34-6.35 2.92-1.91-.34-3.23-1.79-4.28-3.37-.164.36-.243.754-.23 1.15v1.77a7.914 7.914 0 003 2.08c2.78 1.07 5.35-.17 7.58-1.83 2.46-1.84 4.88-3.71 8.06-4 2-.17 4-.21 5.61-1.23-.3-.58-.59-1.17-.89-1.75z" fill="#000"/><path d="M214.28 62.84c-.3-.18-.75-.33-.92-.65-.17-.32-.05-.93-.2-1.34-.58-1.59-2.66-1.3-3.87-.8a8.47 8.47 0 01-1.39.49 2.54 2.54 0 01-1.4-.15 3.647 3.647 0 00-3 .31 15.72 15.72 0 00-2.15 1.85 5.477 5.477 0 01-2.78 1.28c-1 .15-2.09-.19-3.09.15a3.824 3.824 0 00-1.81 1.41c-1.12 1.51-1.2 3.44-2.1 5.05-.9 1.61-3 2.05-3.93 3.67-.93 1.62-.64 3.42-.81 5.13a6.41 6.41 0 01-1 2.77 7.007 7.007 0 00-1.06 2.64 6.379 6.379 0 001.84 4.91A4.93 4.93 0 01188 92a2.997 2.997 0 00.9 2.23 2.94 2.94 0 004-.61 8.548 8.548 0 001.48-5.39v-.88a2.267 2.267 0 01.87-2 13.93 13.93 0 001.56-1.23c.6-.621.955-1.438 1-2.3 0-.45-.07-.89-.06-1.34a1.299 1.299 0 01.85-1.21 5.29 5.29 0 001.83-1.15 6.775 6.775 0 001-1.82 3.45 3.45 0 011.06-1.69 2.61 2.61 0 011.44-.21 4.053 4.053 0 003.39-1.53 5.007 5.007 0 00.91-2.32 2.141 2.141 0 011.82-1.86c.88-.22 1.79-.26 2.65-.53 1.56-.49 3-1.73 2.79-3.5a2.304 2.304 0 00-1.21-1.82z" fill="#F15928"/><path d="M234.65 80a2.667 2.667 0 00-.18-.49c-.64-1.29-2.11-2.1-3.25-2.89a47.853 47.853 0 00-8.36-4.87A36.935 36.935 0 00212 69.27a.54.54 0 00-.69 0 .46.46 0 00-.16.15 30.11 30.11 0 00-4 3.91A16.423 16.423 0 00204 78c-1.37 3.75 1 7.45 3.1 10.36a11 11 0 003.6 3.57 7.27 7.27 0 005.07.39c3.22-.82 5.68-3.14 8.54-4.7 1.35-.4 2.76-.61 4.13-.91 3.15-.7 6.93-2.51 6.85-6.28a.508.508 0 00-.219-.366.496.496 0 00-.421-.064z" fill="#ACC5EA"/><path d="M235.94 75.3a40.303 40.303 0 00-4.79-8 7.12 7.12 0 00-3.16-2.59 8.161 8.161 0 00-4.22-.09 40.41 40.41 0 00-9.72 3.06c-1.54.73-3.89 1.94-5.09 3.59a6.315 6.315 0 00-1.14 1.89c-1.12 3 1.06 5.63 2.75 7.87a40.963 40.963 0 003 3.48 13.353 13.353 0 003.34 2.89 6.879 6.879 0 004.3.37 31.349 31.349 0 004.74-1.29c1.51-.51 3-1.09 4.47-1.73a19.017 19.017 0 004-2.13 5.917 5.917 0 002.26-3.19 6.23 6.23 0 00-.74-4.13z" fill="#E1EAF9"/><path d="M201.34 86.53a5.498 5.498 0 013.24 2.52c.83-1 1.68-1.93 2.56-2.86.49.6 1.22 1.05 2 .52 1-.74 0-2.23-.38-3-.31-.56-.64-1.12-1-1.65-.36-.53-.62-.89-1.21-.8-.516.18-.972.499-1.32.92-.5.44-1 .9-1.46 1.36-1 1-1.89 1.94-2.77 3l.34-.01zm-3.05 10.32a10 10 0 01-1.59-4.55c-.74 1.21-1.44 2.46-2.07 3.73-.32.63-.61 1.26-.89 1.9a3.354 3.354 0 00-.43 1.9 1.896 1.896 0 001.71 1.59.75.75 0 00.57 0 .378.378 0 00.34-.28c.173-.2.323-.418.45-.65a77.34 77.34 0 012.08-3.34 3.152 3.152 0 01-.17-.3z" fill="#0075E7"/><path opacity=".25" d="M235.94 75.3a40.3 40.3 0 00-4.79-8 7.12 7.12 0 00-3.16-2.59l-.39-.11a883.532 883.532 0 01-10.2 23 7.4 7.4 0 003.77.15 31.372 31.372 0 004.74-1.29c1.51-.51 3-1.09 4.47-1.73a19.026 19.026 0 004-2.13 5.918 5.918 0 002.26-3.19 6.23 6.23 0 00-.7-4.11z" fill="#fff"/><path d="M223.53 83.53a42.214 42.214 0 017.57-3.1.514.514 0 00.37-.63.519.519 0 00-.63-.37 45.064 45.064 0 00-7.82 3.2c-.57.3-.06 1.16.51.87v.03z" fill="#0075E7"/><path d="M219.38 108.87a29.315 29.315 0 01-8.57-4.05.311.311 0 00-.33 0 .804.804 0 00-.6.13.382.382 0 00-.167.445.378.378 0 00.087.145 32.747 32.747 0 009 6.67c1.65.832 3.37 1.518 5.14 2.05 1.296.415 2.641.657 4 .72-.39-1.61-.78-3.22-1.16-4.83.16 0 .32-.07.48-.1a26.444 26.444 0 01-7.88-1.18zm9.69 11.84a.238.238 0 00.15-.16c-3.23.56-6.46 1.23-9.6 2.09a9.103 9.103 0 00-5.45 3.55 7.004 7.004 0 00-1 4.26c.37-.15.74-.3 1.13-.43.09 0 .2-.13.18-.24a5.53 5.53 0 01.203-2.262 5.537 5.537 0 011.097-1.988 8.401 8.401 0 013.69-2.18c3.16-1.05 6.42-1.78 9.6-2.64zm-16.34 11.94l-.06-.31h-1.25a4.997 4.997 0 00-.38-2.46 3.815 3.815 0 00-2-1.49 33.427 33.427 0 01-6.57-3.97.405.405 0 010 .11.186.186 0 00.022.118c.019.036.05.065.088.082 2.75 2.1 5.56 4.13 8.31 6.23 0 .52-.05 1-.08 1.56 0 .14.12.23.25.25l1.39.17c.21.06.31-.15.28-.29z" fill="#000"/><path d="M260.82 228.34c-.87.33-1.72.7-2.57 1.1h.08v.08l.44-.16a11.356 11.356 0 011.46 3.63.375.375 0 00.09.18 11.86 11.86 0 001.59-1c.51-.41.979-.869 1.4-1.37.45-.477.731-1.088.8-1.74.09-1.89-2.33-1.06-3.29-.72z" fill="#7F260E"/><path d="M262.3 221.59a3.856 3.856 0 00-1.75.29c-.605.34-1.187.721-1.74 1.14a21.6 21.6 0 01-2.08 1.19 44.222 44.222 0 01-9.18 3.13 77.007 77.007 0 01-31.17 1.25.511.511 0 00-1 .18 3.597 3.597 0 002.42 3.41c1.71.548 3.495.825 5.29.82 3.96.292 7.936.318 11.9.08a92.31 92.31 0 0011.83-1.51 56.235 56.235 0 0011.09-3.1c1.68-.71 3.72-1.6 4.85-3.09.91-1.15.96-3.04-.46-3.79zM190 226.8a.512.512 0 00-.61-.35 30.263 30.263 0 01-14.65.26.465.465 0 00-.54.23.545.545 0 00-.16.31c-.22 1.79 0 3.6 1.84 4.36.896.308 1.826.502 2.77.58 1.145.136 2.297.203 3.45.2 1.15 0 2.31-.06 3.46-.15a9.075 9.075 0 002.89-.47c1.96-.88 1.83-3.2 1.55-4.97z" fill="#fff"/><path opacity=".47" d="M218.53 232.43c.417.119.841.213 1.27.28a13.421 13.421 0 01-1.39-3.83c-.35 0-.7-.1-1-.15a14.471 14.471 0 001.12 3.7zm3.47-3.13l-1-.11a13.924 13.924 0 001.18 3.74l1 .07h.17a13.234 13.234 0 01-1.35-3.7zm3.25 3.82l1.12.05a19.69 19.69 0 01-1.34-3.65l-1-.07a21.465 21.465 0 001.22 3.67zm3.75-3.51h-1c.144 1.236.433 2.451.86 3.62h1a13.92 13.92 0 01-.86-3.62zm3 3.6h1.06a25.043 25.043 0 01-1.18-3.61h-1a25.728 25.728 0 001.12 3.61zm3.13-.14l1-.08c-.34-1.2-.64-2.41-.9-3.63l-1 .07c.26 1.22.56 2.43.9 3.64zm2.87-.23l1-.11c-.23-1.23-.48-2.46-.75-3.68l-1 .11a48 48 0 01.75 3.68zm2.78-.3l1-.14a68.4 68.4 0 00-.71-3.74c-.33 0-.65.11-1 .15.27 1.24.5 2.48.71 3.73zm2.78-.4l1-.16c-.27-1.27-.52-2.54-.74-3.82l-1 .2c.226 1.26.473 2.52.74 3.78zm2.49-4.45c.24 1.3.43 2.6.56 3.92h.24l.75-.15c-.14-1.33-.33-2.65-.58-4l-.97.23zm3.41 3.31l1-.22a29.043 29.043 0 00-.66-4.05l-1 .25a29.07 29.07 0 01.66 4.02zm2.99-.69l1-.27a27.25 27.25 0 00-.69-4.2l-1 .32a27.88 27.88 0 01.69 4.15zm2.48-.73c.32-.1.65-.21 1-.33a36.305 36.305 0 00-.64-4.39c-.31.14-.61.28-.93.41.275 1.424.465 2.863.57 4.31zm2.45-5.72c.338 1.507.552 3.038.64 4.58l1-.42a29.582 29.582 0 00-.7-4.68c-.32.18-.63.36-.94.52zm2.15-1.35c.32 1.62.56 3.24.72 4.88.327-.172.644-.363.95-.57-.18-1.64-.44-3.26-.76-4.88a6.58 6.58 0 00-.91.57z" fill="#9FA9B7"/><path opacity=".5" d="M175.82 226.92c-.05 1.651.17 3.299.65 4.88.367.106.742.186 1.12.24a14.302 14.302 0 01-.78-4.93l-1-.19h.01zm4.05 5.38a14.47 14.47 0 01-.56-4.91l-1-.08c-.09 1.646.078 3.296.5 4.89l1.06.1zm3.27-4.87l-1 .05a18.678 18.678 0 00.43 4.9h1a16.825 16.825 0 01-.43-4.95zm2.59-.23l-1 .11c.011 1.663.209 3.321.59 4.94h.25l.76-.06a21.401 21.401 0 01-.6-4.99zm1.4 4.91c.34-.045.675-.122 1-.23-.12-1.68-.23-3.36-.35-5-.33.07-.66.12-1 .18l.35 5.05zm1.77-.61c.41-.282.732-.674.93-1.13-.09-1.31-.21-2.62-.33-3.92h-.1c-.29.08-.59.14-.88.21.15 1.61.28 3.22.38 4.84z" fill="#9FA9B7"/><path d="M222.68 188.29c4.627-.667 9.27-1.263 13.93-1.79.32 0 .32-.53 0-.5-4.667.507-9.353 1.11-14.06 1.81-.32 0-.19.53.13.48z" fill="#0075E7"/><path d="M222.3 188a34.877 34.877 0 001.14 10.17c.43 1.651.989 3.266 1.67 4.83a10.405 10.405 0 002.46 3.7 5.18 5.18 0 007 .16c2.36-2 2.88-5.14 3-8a68.304 68.304 0 00-.45-12.38c0-.32-.54-.32-.5 0a69.28 69.28 0 01.54 9.87c-.05 2.93 0 6.34-1.77 8.86a5.831 5.831 0 01-3.19 2.37 4.545 4.545 0 01-3.92-.88 9.067 9.067 0 01-2.61-3.53 31.68 31.68 0 01-1.61-4.43A34.869 34.869 0 01222.8 188c0-.32-.49-.32-.5 0z" fill="#0075E7"/><path d="M260.42 138.48l.51-.09-.66.09a7.261 7.261 0 011.68 0l-.66-.09c.383.06.761.151 1.13.27l.31.11c.27.08-.6-.29-.18-.08l.52.27c.17.1.33.21.49.32.34.24-.37-.31-.15-.11l.2.17.42.43c.07.08.14.17.22.25.08.08-.38-.53-.11-.13.23.32.44.654.63 1l.26.54c.13.27-.25-.61-.07-.16 0 .09.07.17.1.26.298.812.552 1.64.76 2.48a2.518 2.518 0 003.07 1.75 2.56 2.56 0 001.75-3.08c-.65-2.49-1.55-5.12-3.5-6.9a9.065 9.065 0 00-8.05-2.16 2.517 2.517 0 00-1.74 3.08 2.56 2.56 0 003.07 1.74v.04z" fill="#767F89"/><path d="M174.4 197a36.749 36.749 0 001 10.61c.69 2.86 1.83 5.87 4.46 7.49a5.687 5.687 0 007.25-1c2.17-2.25 2.58-5.5 2.75-8.48a57.276 57.276 0 00-.64-12.34c-.05-.32-.53-.19-.48.13.533 3.353.767 6.746.7 10.14-.06 3-.12 6.3-1.7 8.91-1.58 2.61-4.45 3.85-7.21 2.43s-3.83-4.26-4.54-7A35.808 35.808 0 01174.9 197c0-.33-.48-.33-.5 0z" fill="#0075E7"/><path d="M174.76 197.32l14.13-3.63a.251.251 0 00.17-.31.251.251 0 00-.31-.17l-14.12 3.63a.248.248 0 00-.151.299.248.248 0 00.281.181z" fill="#0075E7"/><path d="M260.37 252.11s3.73-9.44.21-18.81a.466.466 0 01-.31-.33c-.09-.42-.21-.82-.34-1.23a21.645 21.645 0 00-1.28-2.34 145.645 145.645 0 01-49.95 9 139.736 139.736 0 01-17.23-1 56.696 56.696 0 01-12.64-2.8c-.77 1.15-3 5.43-2.13 15.41 1 12 13.47 197.13 13.47 197.13s16 8.74 33.12 5.64c1.07-38.69-13.06-200.65-13.06-200.65l1.37.52s31.4 62.43 52.9 120.07c21.78 58.53 30.12 85.83 30.12 85.83s18.29-4.74 29.13-13.55c-42.97-114.12-63.38-192.89-63.38-192.89z" fill="#fff"/><path d="M294.82 458.71c8-2.57 16-5.32 23.28-9.65a55.69 55.69 0 005.72-3.94c.12-.1-.05-.28-.18-.18-6.57 5.19-14.32 8.54-22.17 11.29-2.22.78-4.47 1.52-6.72 2.24-.15 0-.08.29.07.24zM190.07 447a60.082 60.082 0 0025.62 6.4 61.895 61.895 0 007.58-.32c.16 0 .16-.27 0-.25a59.795 59.795 0 01-26-3 60.885 60.885 0 01-7.05-3c-.14-.07-.27.14-.12.22l-.03-.05z" fill="#000"/><path d="M223.44 452.69c0-10.47-.28-21-.72-31.42-.44-10.42-1.06-21-1.77-31.51-.407-6-.843-12-1.31-18 0-.16-.26-.16-.25 0 .81 10.62 1.57 21.25 2.19 31.88.61 10.46 1.09 20.92 1.36 31.38.147 5.887.23 11.78.25 17.68a.122.122 0 00-.003.06.13.13 0 00.256 0 .151.151 0 00-.003-.06v-.01zM323.7 445c-1.41-3.63-2.73-7.29-4.06-10.95-1.86-5.16-3.707-10.323-5.54-15.49-2-5.74-4.027-11.48-6.08-17.22a6622.307 6622.307 0 00-5.6-15.87c-1.38-3.91-2.76-7.82-4.17-11.72-.12-.34-.24-.67-.37-1-.05-.15-.29-.09-.24.06 1.34 3.66 2.63 7.33 3.93 11l5.48 15.51c2 5.74 4.023 11.48 6.07 17.22 1.88 5.29 3.75 10.58 5.66 15.85 1.4 3.9 2.81 7.8 4.29 11.67l.39 1c.06.15.3.08.24-.07v.01z" fill="#000"/><path d="M283.83 165.64c-.54-1-1.22-1.84-1.79-2.78a29.36 29.36 0 01-1.67-3.2c-1-2.16-1.74-4.42-2.56-6.64a38.915 38.915 0 00-6.36-11.7c-3-3.65-7-6.75-11.69-7.8a.593.593 0 00-.23 0c-6 1.14-11.06 5.35-14 10.59-3.53 6.24-4.16 13.72-3.23 20.7 1 7.61 3.75 14.82 6.33 22 1.33 3.69 2.62 7.39 3.63 11.17a11.146 11.146 0 001.52 4.17c.95 1.23 2.3 1.22 3.69.8 7-2.15 12.11-8 16.71-13.42a.486.486 0 00.1-.47c2.47-3.27 4-7.13 6-10.7 1.18-2.1 2.8-4 3.76-6.21a7.094 7.094 0 00-.21-6.51z" fill="#F15928"/><path d="M284.06 167.67a1 1 0 00-1.35-.28 4.754 4.754 0 00-1 1.18c-.31.434-.584.892-.82 1.37a21.019 21.019 0 00-1.32 3.41.492.492 0 00.131.485.492.492 0 00.489.115.496.496 0 00.456.6.495.495 0 00.274-.06l-.07.22c-.2.58.6.8.91.39a13.09 13.09 0 002.5-5.93 2.004 2.004 0 00-.2-1.5zm-21.47 29.54c.36-.31 0-1-.48-.83-.48.17-.62.28-.92.42a.49.49 0 00-.223-.321.48.48 0 00-.387-.049c-.3.1-.58.24-.87.36h-.09c-.15 0-.3.11-.45.16l3.25-2.17c.53-.36 0-1.22-.51-.86l-3.68 2.45a15.381 15.381 0 00-3.06 2.45 2.508 2.508 0 00-.75 1.66 1.44 1.44 0 00.94 1.33 3.13 3.13 0 001.69 0 8.746 8.746 0 001.81-.61 15.506 15.506 0 003.63-2.36c.45-.37-.12-1.05-.6-.78l-.11.05a.481.481 0 00-.08-.16c.313-.226.61-.474.89-.74z" fill="#7F260E"/><path d="M168.89 153.42c.25.64.49 1.28.71 1.92a12.007 12.007 0 00-.88-3.27 4.342 4.342 0 00-.83-1.45.789.789 0 00-1.3.22 2.998 2.998 0 00-.19 1.57c.05.63.15 1.27.26 1.9.16.81.36 1.6.58 2.4a33.682 33.682 0 011.65-3.29z" fill="#767F89"/><path d="M242.58 131.1a43.716 43.716 0 01-21.65 12.66c-.32.07-.18.55.13.48a44.303 44.303 0 0021.88-12.78c.22-.24-.14-.59-.36-.36zm-50.88-.7a11.18 11.18 0 006.57 3.9c.31.06.45-.42.13-.48a10.733 10.733 0 01-6.34-3.78c-.21-.25-.56.11-.36.36z" fill="#0075E7"/><path d="M334.32 101.91c-1.27-3.25-2.76-6.43-4.21-9.62a26.772 26.772 0 00-1.63-4.95c1.5.3 3 .59 4.51.78 1.12.14 2.82-.32 2.21-1.82a3.098 3.098 0 00-1.79-1.42 162.88 162.88 0 00-3.12-1.41c-2-.89-4-1.82-6.11-2.57a4.26 4.26 0 00-3.1-.13 5.688 5.688 0 00-1.89 1.33 2.318 2.318 0 00-.38 0c.21-1.1.46-2.19.7-3.27.374-1.584.645-3.19.81-4.81.11-1.29.32-3-.35-4.19-.67-1.19-1.89-.75-2.62.06-1 1.1-1.34 2.74-1.78 4.11-1.12 3.46-2.2 7-3.05 10.5a21.775 21.775 0 00-.65 6c.116 1.964.363 3.919.74 5.85a15.642 15.642 0 00-1.59 4.33 42.643 42.643 0 00-.17 8.9l.3 9.55a52.702 52.702 0 01-.07 9.4 33.44 33.44 0 01-2.77 8.46.547.547 0 00-.68.3 658.851 658.851 0 01-10.83 24.89 630.55 630.55 0 01-10.61 22 629.73 629.73 0 01-5.38-13.1.252.252 0 00-.379-.119.244.244 0 00-.091.119.21.21 0 00-.13.1 75.392 75.392 0 01-15.6 20 76.94 76.94 0 01-5.67 4.68.336.336 0 00-.08.1.53.53 0 00-.16.63 322.174 322.174 0 008.87 18.41c1.52 2.92 3.07 5.84 4.73 8.68a32.046 32.046 0 005.46 7.22 15.632 15.632 0 007.29 4.06 8.93 8.93 0 006.58-1 16.369 16.369 0 003.7-3.95c4.06-5.51 7.18-11.77 10.1-17.94A277.118 277.118 0 00317 183.53a313.926 313.926 0 009.95-35.75c.34-1.59.67-3.19 1-4.79a.492.492 0 00-.19-.51c.69-3.29 1.41-6.58 2.39-9.81 1-3.4 2.55-6.59 3.74-9.93a36.02 36.02 0 002.07-10.26c.22-3.6-.339-7.206-1.64-10.57z" fill="#16205B"/><path d="M281.4 172.64c-.19-.49-.39-1-.59-1.46a.252.252 0 00-.379-.119.244.244 0 00-.091.119.21.21 0 00-.13.1 75.392 75.392 0 01-15.6 20 76.94 76.94 0 01-5.67 4.68.336.336 0 00-.08.1.53.53 0 00-.16.63l.16.36c8.71-6.94 17.47-14.36 22.54-24.41z" fill="#000"/><path d="M280.37 159.66l-.05-.12a16.844 16.844 0 00-4.53 4.61c-1.72 2.53-3 5.31-4.8 7.8a58.134 58.134 0 01-21.2 18.23s.1.27.14.41c.05.01.1.01.15 0a59.93 59.93 0 0014.29-10.17 59.02 59.02 0 005.79-6.45 80.399 80.399 0 005.04-7.97 19.003 19.003 0 015.34-6c-.05-.11-.12-.22-.17-.34z" fill="#0075E7"/><path d="M286.19 184.28l-1.05-2.51a126.015 126.015 0 01-4.7 12.82 47.96 47.96 0 00-2 4.4.248.248 0 000 .17c-.13.28.29.53.43.24 2.61-5.18 5.22-10.36 7.54-15.67l-.22.55z" fill="#000"/><path d="M322.29 81.84a.657.657 0 00-.69-.21c-.204.08-.385.206-.53.37-.26.24-.5.49-.74.75a13.22 13.22 0 00-1.45 2v.06a.46.46 0 00-.29.13.499.499 0 000 .7 1.54 1.54 0 002 0A5.048 5.048 0 00322 84a5.12 5.12 0 00.43-1 1.254 1.254 0 00-.14-1.16z" fill="#fff"/><path d="M329.9 97.33a8.004 8.004 0 00-3.46 7.15c0 .47.79.48.75 0a7.2 7.2 0 013.09-6.5c.4-.27.02-.92-.38-.65z" fill="#000"/><path d="M326.76 93.26a.869.869 0 00-.74-.46.999.999 0 00-.76.29 2.319 2.319 0 00-.57 1.53c-.015.278.005.557.06.83.038.262.161.505.35.69a.999.999 0 001.52-.39 2.39 2.39 0 00.16-.95c0-.335-.027-.67-.08-1a.498.498 0 00-.55-.36.513.513 0 00-.44.49c.025.26.025.52 0 .78v.23l-.09.4.84-.22c0-.05 0 0 0 0v-.06s-.05-.08-.05-.1c0-.02 0 .06 0 0a.206.206 0 010-.07s-.05-.16 0-.08 0-.06 0-.08v-.13a.215.215 0 010-.08v-.14a.49.49 0 00-.35-.61.5.5 0 00-.61.35 1.638 1.638 0 00.32 1.64.502.502 0 00.71.005.505.505 0 00.13-.225 5.536 5.536 0 00.16-1.72l-1 .13v.1c0 .04 0 0 0 0a1.506 1.506 0 000 .19v.82c0 .08 0-.07 0 0v.11c0 .06 0 .05 0 0a.41.41 0 010 .07c0 .05 0 .05 0 0 0 0 .06 0 0 0h-.06c.08 0 .09 0 0 0h.07c.05 0 .06 0 0 0s.05.06 0 0a.817.817 0 010-.07.27.27 0 010-.12.43.43 0 010-.16v-.09c-.01-.12-.01-.24 0-.36v-.09a.805.805 0 010-.17c.02-.112.051-.223.09-.33a.21.21 0 000-.05c0 .06 0 .06 0 0l.07-.13c0-.05 0-.05 0 0l.05-.06h.07c-.08 0-.09 0 0 0 .06 0 0 0 0 0a.496.496 0 00.504.246.5.5 0 00.186-.066.517.517 0 00.18-.68l-.17.15zm2.81 1.21l-.08.12c.05-.07 0 0-.05 0l-.08.09s-.09.07 0 0a1.259 1.259 0 01-.25.14s-.11 0 0 0c0 0 0 .06 0 0a.706.706 0 010-.13.49.49 0 100-.05 2.432 2.432 0 010-.27 2.615 2.615 0 010-.28.482.482 0 010-.12.165.165 0 000-.07c.031-.18.078-.358.14-.53v-.18c.034-.086.074-.17.12-.25 0-.08.09-.15.14-.23l.09-.12s-.13.09 0 0l-.25.07a.36.36 0 01-.17-.07s0 .1.06.1v.12c0-.06 0 0 0 0 .059.17.102.343.13.52v.05c.005.04.005.08 0 .12.005.097.005.193 0 .29.005.083.005.167 0 .25v.15c0 .08 0 .16-.07.25.13-.18.62.23.54 0v-.47.03a.565.565 0 010-.13c0-.05 0 0 0 0a1.99 1.99 0 01.06-.24.88.88 0 01.05-.15v-.06h-.86l.12.2s0 .05 0 0a.673.673 0 010 .11c.02.066.037.132.05.2 0 .1 0 0 0 0a.506.506 0 010 .11v.21c0 .08 0-.11 0 0 .005.03.005.06 0 .09a.945.945 0 01-.07.22.78.78 0 01-.07.12h.87v-.18s0-.1 0 0V94.33c0-.03 0 .11 0 0s0-.11.05-.16v-.07l.05-.08c.06-.1 0 0 0 0l.13-.13-.79-.1.07.09s0 .1 0 0v.11s0 .12 0 0v.24s-.06.14 0 .06a.497.497 0 00.18.68.493.493 0 00.553-.032.486.486 0 00.127-.148c.126-.248.184-.525.169-.802a1.578 1.578 0 00-.259-.778.513.513 0 00-.597-.218.513.513 0 00-.193.118 1.752 1.752 0 00-.37 2.09.509.509 0 00.87 0 2.26 2.26 0 00-.06-2.34.512.512 0 00-.86 0 2.46 2.46 0 00-.28 1.33c0 .44.16 1.15.67 1.28a.65.65 0 00.73-.34 2 2 0 00.2-.64c.09-.459.09-.931 0-1.39a2.765 2.765 0 00-.17-.54 1.282 1.282 0 00-.46-.68.65.65 0 00-.8.13 2.604 2.604 0 00-.38.54 3.708 3.708 0 00-.4 2.53 1.006 1.006 0 001.26.8 1.917 1.917 0 001.19-.91.482.482 0 00.054-.378.482.482 0 00-.234-.302.5.5 0 00-.68.18h-.19z" fill="#fff"/><path d="M327.61 144.43a2.207 2.207 0 00-.26-.73 2.559 2.559 0 00-3.42-.9 15.914 15.914 0 01-9.31.73c-2.79-.54-6.54-1.3-7.78-4.19-.74 1.78-1.49 3.57-2.24 5.35 2.33 2.1 5.77 3.12 8.72 3.69 4.408.967 9.008.537 13.16-1.23.288-.134.539-.336.73-.59.11-.73.26-1.43.4-2.13zm2.5-52.14a26.774 26.774 0 00-1.63-4.95l.46.09a40.89 40.89 0 00-2.2-3.8 19.516 19.516 0 00-1.87-2.47l-.69-.26a6 6 0 00-.92-.26c2.22 1.89 3.74 4.64 5 7.18a15.227 15.227 0 011.75 5.24c.08.82.16 1.92-.6 2.46-1.07.74-1.84-.72-2.13-1.53a.359.359 0 00-.05-.08 16.93 16.93 0 00-2.76-10.14.352.352 0 00-.1-.11 2.485 2.485 0 00-1.28-2.45c-1.45-.59-2.66.69-3.49 1.7-.21.25-.39.53-.6.8.18-.65.35-1.3.52-2-.127.106-.247.22-.36.34a2.34 2.34 0 00-.38 0c.18-.93.38-1.84.59-2.76-.54 2-1.073 4.027-1.6 6.08-.29.45-.59.89-.86 1.34-1.63 2.74-3.08 5.6-4.53 8.45.07.39.13.78.2 1.16-.2.39-.39.79-.57 1.19v-.06c1.45-2.84 2.9-5.68 4.43-8.48.6-1.09 1.24-2.16 1.91-3.21.14-.22.28-.45.43-.66.447-.667.927-1.307 1.44-1.92a3.53 3.53 0 011.8-1.41c3.1-.65.54 6.65.22 7.78-.453 1.58-.9 3.153-1.34 4.72a4.387 4.387 0 00-.37 1.88c.197.607.54 1.157 1 1.6a17.568 17.568 0 012.71 3.92 12.783 12.783 0 011.14 4.79c0 .48.77.48.75 0a13.65 13.65 0 00-3-8 13.798 13.798 0 01-1.64-2c-.4-.75.16-1.85.38-2.63l.4-1.4c.39.81.77 1.62 1.16 2.44.255.77.762 1.433 1.44 1.88a1.53 1.53 0 001.7-.17 2 2 0 00.53-1.21c.251.414.625.74 1.07.93a1.75 1.75 0 002.13-.65 3 3 0 00.5-1.78c-.21-.52-.45-1.05-.69-1.58zm-3.67 2.65c0 .36-.07.94-.42 1.16a1 1 0 01-1.08-.22 6.359 6.359 0 01-1.13-2l-1.11-2.35a.381.381 0 00-.09-.12c.26-.91.51-1.82.77-2.74.392-1.234.7-2.494.92-3.77a16.214 16.214 0 012.24 7.88c.021.721-.013 1.444-.1 2.16z" fill="#000"/><path d="M317.79 72c.16-.29.32-.59.46-.9a3.64 3.64 0 00.33-1c.055-.3.024-.608-.09-.89-.442.112-.84.356-1.14.7a8.08 8.08 0 00-1.48 3.11 1.421 1.421 0 001.36-.31 2.63 2.63 0 00.56-.71z" fill="#fff"/><path d="M330.43 132.82a.238.238 0 00-.243-.134.237.237 0 00-.207.184c-.16.62-.32 1.24-.51 1.86a26.438 26.438 0 01-18.16-4 .446.446 0 00-.531.014.433.433 0 00-.119.146.199.199 0 00-.117.024.197.197 0 00-.083.086 18.834 18.834 0 00-2.46 9.6c0 1.55.12 3.15 1.34 4.25a13.826 13.826 0 004.07 2.32 19.915 19.915 0 009.86 1.35 8.757 8.757 0 004.14-1.44 7.125 7.125 0 002.4-3.6 41.873 41.873 0 001.47-6.26c.23-1.47.61-3.43-.85-4.4zM311 140.16c-2.58 0-2.57-4 0-4s2.6 4 0 4zm7.11 2.65c-2.57 0-2.57-4 0-4s2.61 4 .03 4h-.03z" fill="#E1EAF9"/><path d="M333.1 85.93c.37.408.811.747 1.3 1 .264.105.554.126.83.06h.08a1.418 1.418 0 00-.11-.64 3.098 3.098 0 00-1.79-1.42l-1-.46c-.18.62.26 1.06.69 1.46z" fill="#fff"/><path d="M308.79 132.06a3.837 3.837 0 00-1.76.31 10.9 10.9 0 00-1.81 4.84c.236.127.51.162.77.1.252-.069.468-.234.6-.46.117-.224.152-.482.1-.73v.07a3.873 3.873 0 010-.59c.036-.177.086-.351.15-.52.047-.112.104-.219.17-.32v-.05c.06-.05.1-.11.16-.17l.16-.14h.06c.101-.07.208-.13.32-.18.172-.062.35-.109.53-.14a2.46 2.46 0 01.47 0 .99.99 0 00.71-.29 1.002 1.002 0 00-.71-1.71l.08-.02z" fill="#789AC1"/><path d="M322.45 136.66a12.027 12.027 0 00-3.12-1.34 23.1 23.1 0 01-3.27-1.44 13.096 13.096 0 01-5.08-4.57c.11-.53.19-1.05.26-1.58 0-.07 0-.1-.08-.11h-.11a10.204 10.204 0 00-3.67 3.74 19.552 19.552 0 00-2.3 5.38 6.31 6.31 0 00.94 5.57 11.297 11.297 0 004.56 3.27 14.264 14.264 0 005.84 1.13 11.414 11.414 0 005.64-1.39 5.224 5.224 0 002.504-4.226 5.22 5.22 0 00-2.114-4.434zm-14.16-2l-.21.5a.994.994 0 01-.25.44l-.21.16a1 1 0 01-.5.14h-.27a.743.743 0 01-.34-.18.777.777 0 01-.26-.28.693.693 0 01-.11-.37.775.775 0 010-.4l.21-.5c.047-.167.137-.318.26-.44l.2-.16c.157-.086.331-.133.51-.14h.26c.246.081.458.244.6.46a.813.813 0 01.12.37.782.782 0 01-.01.36v.04zm2.74 5.54c-2.58 0-2.57-4 0-4s2.57 3.96-.03 3.96l.03.04zm7.11 2.65c-2.57 0-2.57-4 0-4s2.58 3.96 0 3.96v.04z" fill="#ACC5EA"/><path d="M313.05 134.39a4.995 4.995 0 00-3.95 2.45 4.796 4.796 0 00.76 4.85.995.995 0 00.61.464.992.992 0 001.11-1.464 6.302 6.302 0 01-.51-.82 1.671 1.671 0 01-.11-.23v-.09c0 .07 0 .07 0 0a3.084 3.084 0 01-.13-.43l-.06-.24v-.56c0-.16 0-.13 0 0v-.24c0-.08.05-.15.07-.23.02-.08 0 0 0-.07.064-.117.134-.23.21-.34-.08.11 0 0 0 0l.15-.16.13-.12c.2-.18-.08 0 .05 0l.38-.23.21-.11s.14-.06 0 0c.16-.064.323-.117.49-.16a8.576 8.576 0 011-.22.998.998 0 00.728-.841 1.002 1.002 0 00-1.258-1.089l.12-.12z" fill="#789AC1"/><path d="M309.54 145.05c4.19 3.24 12.73 2.94 14.76-2.72.22-.61-.74-.87-1-.26-.91 2.53-3.59 3.74-6.11 4a10.193 10.193 0 01-7.19-1.84c-.51-.39-1 .48-.5.86l.04-.04z" fill="#000"/><path d="M319.58 136.88A5.117 5.117 0 00316 140a4.752 4.752 0 001.39 4.66 1.002 1.002 0 001.65-.721 1.002 1.002 0 00-.24-.689c-.11-.11-.22-.23-.32-.35.09.1 0 0-.05-.07l-.13-.2a2.648 2.648 0 01-.21-.37c0-.06-.09-.2 0-.07 0-.07-.05-.14-.08-.22-.03-.08-.08-.27-.11-.41-.03-.14 0-.31 0-.1v-.18a2.46 2.46 0 010-.47v-.05c.017-.078.041-.155.07-.23a.565.565 0 01.06-.17c-.08.18 0 0 0 0 .033-.069.07-.136.11-.2 0 0 .14-.21.07-.11l.09-.11.15-.16c.095-.096.195-.186.3-.27h.05l.19-.12.4-.23.17-.08c.26-.13-.1 0 .05 0l.48-.17a1 1 0 10-.53-1.92l.02-.11z" fill="#789AC1"/><path d="M322.45 136.66a12.027 12.027 0 00-3.12-1.34 23.1 23.1 0 01-3.27-1.44 13.096 13.096 0 01-5.08-4.57c.11-.53.19-1.05.26-1.58 0-.07 0-.1-.08-.11h-.11a10.204 10.204 0 00-3.67 3.74 19.552 19.552 0 00-2.3 5.38 6.31 6.31 0 00.94 5.57 11.297 11.297 0 004.56 3.27 14.264 14.264 0 005.84 1.13 11.414 11.414 0 005.64-1.39 5.224 5.224 0 002.504-4.226 5.22 5.22 0 00-2.114-4.434zm-14.16-2l-.21.5a.994.994 0 01-.25.44l-.21.16a1 1 0 01-.5.14h-.27a.743.743 0 01-.34-.18.777.777 0 01-.26-.28.693.693 0 01-.11-.37.775.775 0 010-.4l.21-.5c.047-.167.137-.318.26-.44l.2-.16c.157-.086.331-.133.51-.14h.26c.246.081.458.244.6.46a.813.813 0 01.12.37.782.782 0 01-.01.36v.04zm2.74 5.54c-2.58 0-2.57-4 0-4s2.57 3.96-.03 3.96l.03.04zm7.11 2.65c-2.57 0-2.57-4 0-4s2.58 3.96 0 3.96v.04z" fill="#ACC5EA"/><path d="M321.23 148.65h.2a.888.888 0 00.85-.78c.533-4 .973-8.03 1.32-12.09a.894.894 0 00-.81-1h-.16a.891.891 0 00-1 .81c-.353 4-.787 8-1.3 12a.893.893 0 00.195.746.882.882 0 00.317.237.878.878 0 00.388.077z" fill="#0075E7"/><path d="M329.56 134.38c0 .09-.05.19-.07.28a4.31 4.31 0 001-.37c.15-.07 0-.29-.12-.22a3.784 3.784 0 01-.81.31zm-18.83-6.01c-.05-.15-.29-.09-.24.07.136.385.342.741.61 1.05l-.12-.18.02-.31a2.68 2.68 0 01-.27-.63z" fill="#000"/><path d="M160 295.08c.2-.3.38-.61.58-.91a.85.85 0 00-.59-.4 1.432 1.432 0 00-1.06.45c-.288.233-.54.505-.75.81a6.818 6.818 0 00-1 2.4c1.18.12 2.33-1.58 2.82-2.35zm-23.28 7.16a.21.21 0 00-.156.116.206.206 0 00.006.194c-.06.18-.09.37-.14.55h.08l-.09.55a5.944 5.944 0 00.17 3.42c.085.178.2.341.34.48.329-.057.623-.24.82-.51.248-.295.438-.635.56-1a4.66 4.66 0 00.27-2.42 1.642 1.642 0 00-.642-1.078 1.64 1.64 0 00-1.218-.302z" fill="#fff"/><path d="M136.83 299c-.73-.2-1.33.55-1.61 1.12a5.26 5.26 0 00-.28.65 2.485 2.485 0 001.25 2.28h.07c.13-.22.24-.46.35-.69.2-.412.373-.836.52-1.27a3.27 3.27 0 00.2-1.27c-.02-.34-.1-.7-.5-.82zm-1.64-5.22c-.64-.2-1.09.57-1.34 1.13-.083.72.017 1.449.29 2.12.161.345.413.639.73.85.15-.231.271-.48.36-.74.151-.387.258-.789.32-1.2a6.43 6.43 0 00.07-1.24c-.02-.34-.04-.79-.43-.92zm.46-7.49a.373.373 0 00-.18-.125.375.375 0 00-.22-.005.862.862 0 00-.39.18 1.599 1.599 0 00-.26.26c-.003.394.013.788.05 1.18.038.379.108.753.21 1.12.139-.106.254-.238.34-.39.133-.222.25-.452.35-.69.102-.246.169-.505.2-.77a1.403 1.403 0 00-.1-.76z" fill="#fff"/><path d="M143.2 286.53a85.082 85.082 0 00-7.12 16.47l.11.07c.097.042.197.076.3.1 0 .15-.05.3-.07.45a83.093 83.093 0 017.21-16.83c.16-.29-.28-.54-.43-.26zm-1.86-3.53a40.128 40.128 0 00-6.5 14.88c.08.063.168.116.26.16-.06.44-.11.88-.13 1.32a.213.213 0 00.1-.16 39.934 39.934 0 016.7-15.95c.23-.25-.24-.54-.43-.25zm-1.18-3.4a32.285 32.285 0 00-5.32 9.24c.07.26.14.52.23.77a31.25 31.25 0 015.45-9.61c.2-.29-.15-.64-.36-.4z" fill="#000"/><path d="M210.24 252.2a15.677 15.677 0 01-6.78-6.8c-.27-.59-1.13-.08-.87.5a17 17 0 007.75 7.49c-.05-.63-.09-1.03-.1-1.19z" fill="#0075E7"/><path d="M335.72 468.43a9.835 9.835 0 011.36-1.3l-.3.24a9.412 9.412 0 012-1.16l-.36.16c.326-.137.66-.253 1-.35a1.492 1.492 0 00.963-.689 1.499 1.499 0 00-1.153-2.271 1.506 1.506 0 00-.6.07 10.385 10.385 0 00-5 3.18 1.607 1.607 0 00-.44 1.06c0 .398.159.779.44 1.06a1.521 1.521 0 002.12 0h-.03z" fill="#F15928"/><path d="M342.7 465.66a1.522 1.522 0 00-1.85-1 10.449 10.449 0 00-5.44 4.26 1.518 1.518 0 00.54 2.06 1.538 1.538 0 002.06-.54c.11-.18.23-.34.35-.51a7.352 7.352 0 012.92-2.24l.37-.13a1.62 1.62 0 00.89-.69 1.564 1.564 0 00.16-1.21zm-5.99-1.48l.48-.17c.375-.111.695-.357.9-.69.152-.257.224-.554.207-.853a1.506 1.506 0 00-1.02-1.333 1.507 1.507 0 00-.877-.024l-.29.12a1.497 1.497 0 00.543-1.871 1.502 1.502 0 00-1.763-.829l-.39.12a1.484 1.484 0 00.37-1.43 1.762 1.762 0 00-.39-.66 1.594 1.594 0 00-1.06-.44 4.562 4.562 0 00-2.71.72 7.579 7.579 0 00-2 1.94 1.539 1.539 0 00-.15 1.15c.109.376.355.697.69.9.173.103.365.17.565.195.199.026.402.011.595-.045l.36-.15c-.1.11-.22.19-.31.3a1.584 1.584 0 00-.44 1.06c0 .398.159.779.44 1.06.138.141.303.253.485.329.182.075.378.113.575.111a1.473 1.473 0 001.06-.44c.26-.28.541-.541.84-.78.369-.27.764-.501 1.18-.69.203-.077.41-.144.62-.2A9.517 9.517 0 00332 464a1.63 1.63 0 00-.44 1.06 1.498 1.498 0 001.792 1.47 1.5 1.5 0 00.768-.41c.325-.365.684-.7 1.07-1a8.311 8.311 0 011.52-.94zm-149.2-5.53c-.21-.4-.41-.82-.63-1.22a4.992 4.992 0 00-.63-.89 3.987 3.987 0 00-.76-.66 4.666 4.666 0 00-1.42-.64 7.673 7.673 0 00-1.58-.25 2.002 2.002 0 00-1.847 1.231 2.01 2.01 0 00-.153.769c.011.437.158.86.42 1.21h-.07a1.873 1.873 0 00-1.06 1.06 1.548 1.548 0 00-.17.77c.012.172.039.343.08.51h-.07a2 2 0 00-2 2v.09h-.22a2.003 2.003 0 00-1.42.58c-.287.301-.479.68-.55 1.09-.393-.09-.79-.16-1.19-.21a2.01 2.01 0 00-1.42.59c-.365.38-.572.884-.58 1.41-.001.263.049.524.148.768.1.243.247.465.432.652.366.323.824.523 1.31.57h-.27c.468.067.927.184 1.37.35.347.18.681.383 1 .61.28.236.54.494.78.77.215.285.402.59.56.91a2.007 2.007 0 002.74.72 2 2 0 00.92-1.19 2.242 2.242 0 000-.93c.31-.005.614-.091.88-.25a2 2 0 00.92-1.2l.07-.53a2.376 2.376 0 00-.06-.46h.23a2 2 0 001.19-.92 1.905 1.905 0 00.2-1.54 2 2 0 001.19-.92l.2-.48c.1-.346.1-.714 0-1.06a1.404 1.404 0 00-.06-.22c.244-.031.479-.113.69-.24a2 2 0 00.92-1.19 2.25 2.25 0 00-.09-1.66z" fill="#F15928"/></svg>